/* XPM */
static char *result[] = {
/* columns rows colors chars-per-pixel */
"51 40 73 1 ",
"  c #002121",
". c #012121",
"X c #002022",
"o c #002122",
"O c #012122",
"+ c #002123",
"@ c #002222",
"# c #002223",
"$ c #000060",
"% c #000061",
"& c #000161",
"* c #000062",
"= c #010062",
"- c #000063",
"; c #000163",
": c #010163",
"> c #000083",
", c #010083",
"< c #000183",
"1 c #000084",
"2 c #010084",
"3 c #000184",
"4 c #010184",
"5 c #000085",
"6 c #010085",
"7 c #010185",
"8 c #001F83",
"9 c #011F83",
"0 c #002082",
"q c #012082",
"w c #002083",
"e c #012083",
"r c #002183",
"t c #012183",
"y c #002084",
"u c #012084",
"i c #002184",
"p c #012184",
"a c #002085",
"s c #0142A5",
"d c #0143A5",
"f c #0141A6",
"g c #0042A6",
"h c #0142A6",
"j c #0143A6",
"k c #0142A7",
"l c #0143A7",
"z c #0242A6",
"x c #0243A6",
"c c #0242A7",
"v c #0142A8",
"b c #2163C7",
"n c #2263C6",
"m c #2263C7",
"M c #2363C7",
"N c #2164C7",
"B c #2264C7",
"V c #2163C8",
"C c #2263C8",
"Z c #2363C8",
"A c #2263C9",
"S c #2264C8",
"D c #2364C8",
"F c #4384E8",
"G c #4385E8",
"H c #4384E9",
"J c #4385E9",
"K c #4485E9",
"L c #42A5E7",
"P c #42A5E8",
"I c #43A5E8",
"U c #42A6E8",
"Y c #00ff16",
/* pixels */
"YYYYYYYYYYYooooooooooooooooooooOoooOooooooooooooooo",
"YYYYYYYYYYowwwwwywww5111111111weiwewwwwwwwwwwwwwio*",
"YYYYYYYYYYowkhhhhh11hhhhhhhhhh1>>dkhkhhhhhhhhhhro**",
"YYYYYYYYYoihxkhh11hmmmmmmmmmmmmCj17jkhhhhhhhhhjw.=e",
"YYYYYYYYY@8khkh1hbnmmmmmmmmmmmmmmhh1hshhhhhhhhro;m%",
"YYYYYYYYowhksh1hmmmmmmmmmmmmmmmmDmCF1hhhhhhhhzwo&C*",
"YYYYYYYYowhzj5cCnmmmmmmmmmmmmmmmmmmFH1hhhhhhkwo=mb1",
"YYYYYYYOyhhhh%hmmmCCmmmmmmmmmmmmmmmFF1hhhhhhkwo*mnw",
"YYYYYYYowhhsh=3hmmmmmmmmmmmmmmmCbCmF1>hhhhhhwo*mmA5",
"YYYYYY rhkkhj3*1kjnBCVmmmmBCmmmmCHJ5w1hhhhhhyo$Smmw",
"YYYYYYophkhhh1::%1FFmmmmmmmmmmFFJ11wr5hhhhhpo-Nmmm5",
"YYYYYoikhffhk5-*1$6>6FFFFFPPPF152qwww5hhhhkuo*mmmC1",
"YYYYYorhhhhhh1**1e1<*551519Hw5hwwwy086hhhhiX*Cmmmm1",
"YYYYouhhhhhhh5**1w114twhhrhIhrkwywiir1hhhjyo*mmmmm5",
"YYYYo8hhhhkhh1%*1w>3ywyhkwhGhwswwrprr1khhwo*VCmmmm1",
"YYYowkhhhhkhgh4%1w11wywhwwhUjwhwww9r6hkhhw+%mmmmmm1",
"YYYoehhhhhhhhhh11w5,0wrkaehFvwlwwww1zhhhwo*mmmmmmm5",
"YYowkhhhhhhhhhch1511eykfewhnhehwi55kkhhhyo$Smmmmmm5",
"YYowhhhhhhhhhhhhkl116whkiwkmhw111hhhsshwo:bmmmmmmmY",
"Y#wzhhhhhhhhhhshhkhkh1112>1515kjhhkhhhhyo*CmCmmmmmY",
"Yowhhhhhhhhhkhhhhhhhhhhkhhhchhkhjhhhhhy+*mmmmmmmCYY",
"oekhhhhhhhhhhhhhvhhhhhhhhhhchkhzhhhhhmwo:mmmmmmmCYY",
"yiewwwwwwwwwhhrykwwwmMCwHwCmPmLbmKmhwwo*VCmmmmmmYYY",
"51115111111112111>1>11>111515111111111-%mZmmmmmmYYY",
"oooooooooooooooooooooooooooooooooooooooommmmmmmYYYY",
"oooooooooooooooooooooooooooooooooooooooommmmmmmYYYY",
"oooooooooooooooooooooooooooooooooooooooommmmmmYYYYY",
"oooooooooooooooooooooooooooooooooooooooommmmmmYYYYY",
"oooooooooooooooooooooooooooooooooooooooommmmCYYYYYY",
"oooooooooooooooooooooooooooooooooooooooommmmCYYYYYY",
"oooooooooooooooooooooooooooooooooooooooommmmYYYYYYY",
"oooooooooooooooooooooooooooooooooooooooommmmYYYYYYY",
"oooooooooooooooooooooooooooooooooooooooommCYYYYYYYY",
"oooooooooooooooooooooooooooooooooooooooommmYYYYYYYY",
"oooooooooooooooooooooooooooooooooooooooommYYYYYYYYY",
"oooooooooooooooooooooooooooooooooooooooommYYYYYYYYY",
"ooooooooooooooooooooooooooooooooooooooooCYYYYYYYYYY",
"oooooooooooooooooooooooooooooooooooooooomYYYYYYYYYY",
"ooooooooooooooooooooooooooooooooooooooooYYYYYYYYYYY",
"ooooooooooooooooooooooooooooooooooooooooYYYYYYYYYYY"
};
