/* XPM */
static char *result[] = {
/* columns rows colors chars-per-pixel */
"40 24 10 1 ",
"  c black",
". c #2D131E",
"X c #327345",
"o c #B4253C",
"O c #EE2B2B",
"+ c #A22540",
"@ c #44CA4F",
"# c #45D951",
"$ c #FEC8BD",
"% c #00ff16",
/* pixels */
"%%%%%%%%%%%%%%%%%%%..%%%%%%%%%%%%%%%%%%%",
"%%%%%%%%%%%%%%%%%%.@@.%%%%%%%%%%%%%%%%%%",
"%%%%%%%%%%%%%%%%%.X@@.%%%%%%%%%%%%%%%%%%",
"%%%%%%%%%%%%....%.@@X.%%%%%%%%%%%%%%%%%%",
"%%%%%%%%%%%.#@#X.#X@.%%%%%%%%%%%%%%%%%%%",
"%%%%%%%%%.@XXX@@X..@.%%%%%%%%%%%%%%%%%%%",
"%%%%%%%%.@@XX@@X.%.@.%%%%%%%%%%%%%%%%%%%",
"%%%%%%%%........%%.X@.%%%%%%%%%%%%%%%%%%",
"%%%%%%%%%%%%%%#X%%%.X@.%%%%%%%%%%%%%%%%%",
"%%%%%%%%%%%%%#@.%%%%.X@.%%%%%%%%%%%%%%%%",
"%%%%%%%%%%%%%#X..%%%%.X@....%%%%%%%%%%%%",
"%%%%%%%%%%%%.X.+O.%%%%.Xo+O+.%%%%%%%%%%%",
"%%%%%%%%%%%.+.+OOO.%%%....OO+.%%%%%%%%%%",
"%%%%%%%%%%.OO+$$OO+.%.O+o+$OO+.%%%%%%%%%",
"%%%%%%%%%%.OOO$$OO+.%.OOOO$OO+.%%%%%%%%%",
"%%%%%%%%%%.OOOOOO++.%.OOOOOO++.%%%%%%%%%",
"%%%%%%%%%%.+OOOO++O.%.+OOOO++O.%%%%%%%%%",
"%%%%%%%%%%%.+++++O. % .+++++O.%%%%%%%%%%",
"%%%%%%%%%%%%.++OO.     .++OO.%%%%%%%%%%%",
"%%%%%%%%%    ....       ....%%%%%%%%%%%%",
"%%%%%%%%                    %%%%%%%%%%%%",
"%%%%%%%%%                  %%%%%%%%%%%%%",
"%%%%%%%%%%%%           %%%%%%%%%%%%%%%%%",
"%%%%%%%%%%%%%%%%%%%%%%%%%%%%%%%%%%%%%%%%"
};
