/* XPM */
static char *result[] = {
/* columns rows colors chars-per-pixel */
"24 24 9 1 ",
"  c #2D131E",
". c #327345",
"X c #B4253C",
"o c #EE2B2B",
"O c #A22540",
"+ c #44CA4F",
"@ c #45D951",
"# c #FEC8BD",
"$ c #00ff16",
/* pixels */
"$$$$$$$$$$$$$$$$$$$$$$$$",
"$$$$$$$$$$$$$$$$$$$$$$$$",
"$$$$$$$$$$$$  $$$$$$$$$$",
"$$$$$$$$$$$ ++ $$$$$$$$$",
"$$$$$$$$$$ .++ $$$$$$$$$",
"$$$$$    $ ++. $$$$$$$$$",
"$$$$ @+@. @.+ $$$$$$$$$$",
"$$ +...++.  + $$$$$$$$$$",
"$ ++..++. $ + $$$$$$$$$$",
"$        $$ .+ $$$$$$$$$",
"$$$$$$$@.$$$ .+ $$$$$$$$",
"$$$$$$@+ $$$$ .+ $$$$$$$",
"$$$$$$@.  $$$$ .+    $$$",
"$$$$$ . Oo $$$$ .XOoO $$",
"$$$$ O Oooo $$$    ooO $",
"$$$ ooO##ooO $ oOXO#ooO ",
"$$$ ooo##ooO $ oooo#ooO ",
"$$$ ooooooOO $ ooooooOO ",
"$$$ OooooOOo $ OooooOOo ",
"$$$$ OOOOOo $$$ OOOOOo $",
"$$$$$ OOoo $$$$$ OOoo $$",
"$$$$$$    $$$$$$$    $$$",
"$$$$$$$$$$$$$$$$$$$$$$$$",
"$$$$$$$$$$$$$$$$$$$$$$$$"
};
