/* XPM */
static char *result[] = {
/* columns rows colors chars-per-pixel */
"40 24 3 1 ",
"  c black",
". c #E6E741",
"X c #00ff16",
/* pixels */
"XXXXXXXXXXXXXXXXXXXXXXXXXXXXXXXXXXXXXXXX",
"XXXXXXXXXXXXXXXXXXXXXXXXXXXXXXXXXXXXXXXX",
"XXXXXXXXXXXXXXXXXXXXXXXXXXXXXXXXXXXXXXXX",
"XXXXXXXXXXXXXXXXXXXXXXXXXXXXXXXXXXXXXXXX",
"XXXXXXXXXXXXXXXXXXXXXXXXXXXXXXXXXXXXXXXX",
"XXXXXXXXXXXXXXXXXXXXXXXXXXXXXXXXXXXXXXXX",
"XXXXXXXXXXXXXXXXXXXXXXXX     XXXXXXXXXXX",
"XXXXXXXXXXXXXXXXXXXXXX  .....  XXXXXXXXX",
"XXXXXXXXXXXXXXXXXXXXX ......... XXXXXXXX",
"XXXXXXXXXXXXXXXXXXXX ........... XXXXXXX",
"XXXXXXXXXXXXXXXXXXXX ........... XXXXXXX",
"XXXXXXXXXXXXXXXXXXX ............. XXXXXX",
"XXXXXXXXXXXXXXXXXXX ............. XXXXXX",
"XXXXXXXXXXXXXXXXXX  ............. XXXXXX",
"XXXXXXXXXXXXXXXXXX  ............. XXXXXX",
"XXXXXXXXXXXXXXXXXX  ............. XXXXXX",
"XXXXXXXXXXXXXXXXXX  ............. XXXXXX",
"XXXXXXXXXXXXXXXXXX   ........... XXXXXXX",
"XXXXXXXXXXXXXXXXXX   ........... XXXXXXX",
"XXXXXXXXXXXXXXXXXXX   ......... XXXXXXXX",
"XXXXXXXXXXXXXXXXXXX     .....  XXXXXXXXX",
"XXXXXXXXXXXXXXXXXXXX          XXXXXXXXXX",
"XXXXXXXXXXXXXXXXXXXXXX       XXXXXXXXXXX",
"XXXXXXXXXXXXXXXXXXXXXXXXXXXXXXXXXXXXXXXX"
};
