/* XPM */
static char *result[] = {
/* columns rows colors chars-per-pixel */
"40 24 36 1 ",
"  c #002121",
". c #002122",
"X c #012122",
"o c #202241",
"O c #212241",
"+ c #222241",
"@ c #212142",
"# c #212242",
"$ c #1F4142",
"% c #1F4243",
"& c #1F4343",
"* c #204242",
"= c #204243",
"- c #214243",
"; c #414261",
": c #424361",
"> c #414262",
", c #414362",
"< c #424262",
"1 c #424362",
"2 c #434362",
"3 c #424263",
"4 c #424363",
"5 c #434363",
"6 c #424463",
"7 c #424364",
"8 c #626362",
"9 c #636362",
"0 c gray39",
"q c #636364",
"w c #4384E8",
"e c #4384E9",
"r c #848483",
"t c #848484",
"y c #858484",
"u c #848485",
/* pixels */
"11111O=O=31t41&o111,11114O=#=11t41%o1111",
"1441413==1=t=O41111,1441111==1=t=O411111",
"13,11111<111<111111413,11111<113<1111114",
"1111111111141<11114111111111111111111141",
"1114111111111111114111141111111111111141",
"5O=====O1111111114115O=====O111111111411",
"=30000007O1,1111<11O=30000007O1,1111<11O",
"0000q09001O1111161O10000q09001O1111161O1",
"909q000q8t@1111111.=909q000q8t@1111111.=",
"Otq9qq9y=1O11111<1OXOtq9qq9y=1O11111<1OX",
"%Oo==t$>11O11111,1O.%Oo==t$>11O11111,1O.",
"*-=31w1111O1111111+ *-=31w1111O1111111+ ",
"=O%<4r11=O111111111O=O%<4r11=O111111111O",
"1==7=r$O1111111111141==7=r$O111111111114",
"4211114111111111111142111141111111111111",
"1121111111111111111111211111111111111111",
"4411111111111<1111314411111111111<111131",
"=O31;111111141<@%==%=O31;111111141<@%==%",
"001O111111114O=>00q0001O111111114O=>00q0",
"q00<O1111111O1090000q00<O1111111O1090000",
"q00uO:111111.=000090q00uO:111111.=000090",
"0t=,O1111111O.Ou00q90t=,O1111111O.Ou00q9",
"%1<;O1111111OX=OO==t%1<;O1111111OX=OO==t",
"1111O1111111OX=--4>e1111O1111111OX=--4>e"
};
