/* XPM */
static char *result[] = {
/* columns rows colors chars-per-pixel */
"16 16 3 1 ",
"  c black",
". c white",
"X c #00ff16",
/* pixels */
"XXXXXX      XXXX",
"XXXXXX      XXXX",
"XXXX  ......  XX",
"XXXX  ......  XX",
"XX  ........  XX",
"XX  ........  XX",
"  ....  ....  XX",
"  ....  ....  XX",
"  ............  ",
"  ............  ",
"XX      ....  XX",
"XX      ....  XX",
"XXXX  ........  ",
"XXXX  ........  ",
"XXXXXX        XX",
"XXXXXX        XX"
};
