/* XPM */
static char *result[] = {
/* columns rows colors chars-per-pixel */
"40 24 9 1 ",
"  c black",
". c #EE5F5F",
"X c #CECECE",
"o c gray81",
"O c #D0D0D0",
"+ c gainsboro",
"@ c #DDDDDD",
"# c white",
"$ c #00ff16",
/* pixels */
"$$$$$$$$$$$$$$$         $$$$$$$$$$$$$$$$",
"$$$$$$$$$$$$$  oOooooooO  $$$$$$$$$$$$$$",
"$$$$$$$$$$$$ oo@#@#@@@@ooo $$$$$$$$$$$$$",
"$$$$$$$$$$$ oo@@@@@@@##@@oo $$$$$$$$$$$$",
"$$$$$$$$$$ Oo@@@ooO@@@@##@oo $$$$$$$$$$$",
"$$$$$$$$$$ o@@oOoooooo@@##@o $$$$$$$$$$$",
"$$$$$$$$$ oo@oooooooooX@@##@o $$$$$$$$$$",
"$$$$$$$$$ o@oooooooOOooo@@#@o $$$$$$$$$$",
"$$$$$$$$$ O@ooooooooooOOO ..  $$$$$$$$$$",
"$$$$$$$$$ O@ooooooooooOO .. . $$$$$$$$$$",
"$$$$$$$$$ XoooooooooooOO . #  $$$$$$$$$$",
"$$$$$$$$$ ooooooooooooO ..    $$$$$$$$$$",
"$$$$$$$$$ o@OoooooooooO ... . $$$$$$$$$$",
"$$$$$$$$$ ooooooooooooO ....  $$$$$$$$$$",
"$$$$$$$$$ ooooooooooooO  ..   $$$$$$$$$$",
"$$$$$$$$$ oooooooooooooo    o $$$$$$$$$$",
"$$$$$$$$$ oooooooooooooooO@@o $$$$$$$$$$",
"$$$$$$$$$ ooooooooooooooooo@o $$$$$$$$$$",
"$$$$$$$$$ oooooooooooooooo+@o $$$$$$$$$$",
"$$$$$$$$$ oooooooooooooOooo@o $$$$$$$$$$",
"$$$$$$$$$ ooo oooo   oooo ooo $$$$$$$$$$",
"$$$$$$$$$ oo   oo     oo   oo $$$$$$$$$$",
"$$$$$$$$$$                   $$$$$$$$$$$",
"$$$$$$$$$$$$$$$$$$$$$$$$$$$$$$$$$$$$$$$$"
};
