/* XPM */
static char *result[] = {
/* columns rows colors chars-per-pixel */
"51 40 55 1 ",
"  c #002121",
". c #012121",
"X c #012022",
"o c #002122",
"O c #012122",
"+ c #002123",
"@ c #012123",
"# c #002222",
"$ c #012222",
"% c #002223",
"& c #212140",
"* c #202141",
"= c #212141",
"- c #222141",
"; c #202240",
": c #212240",
"> c #202241",
", c #212241",
"< c #212341",
"1 c #222241",
"2 c #222341",
"3 c #212142",
"4 c #222142",
"5 c #212242",
"6 c #222242",
"7 c #1F4142",
"8 c #1F4242",
"9 c #1F4243",
"0 c #204143",
"q c #224143",
"w c #204242",
"e c #204243",
"r c #214243",
"t c #204343",
"y c #204244",
"u c #214244",
"i c #414262",
"p c #414362",
"a c #424262",
"s c #424362",
"d c #424263",
"f c #424363",
"g c #434363",
"h c #434264",
"j c #636362",
"k c gray39",
"l c #646362",
"z c #646363",
"x c #636463",
"c c #636364",
"v c #646464",
"b c #848484",
"n c #858484",
"m c #858485",
"M c #00ff16",
/* pixels */
"MMMMMMMMMMMoooooooo%Xooooooooooooooooooooooooooo.+o",
"MMMMMMMMMMo,,,,,,,,5oooooooooo65,4,,,,2,,,,,,,5=,oo",
"MMMMMMMMMMo1eeeeeeOoereeeeeeeeoo eeeeeeeeeeeeee,oo%",
"MMMMMMMMMo,eeeeeooussssssssssssa9.oeee7eeeeeeee,oOO",
"MMMMMMMMMo4eteeoessssssssssssspshweoqeeeeeeeee5ooco",
"MMMMMMMMo;reeeowsssssssssssssssssffkoeeeeeee9e5o#xo",
"MMMMMMMMo,tee.efsssssssssssssssssidkxoeeeeeee=Ookko",
"MMMMMMMo5reweoegfpssssssssssssdsdsakkoeeeeee9>ookko",
"MMMMMMMo5eeeeooegdssssssssssssssfsskO#eeeeee,o#kkko",
"MMMMMMo,eeeeeooOwedsssssssssssassjlo3oeeeee95ookkko",
"MMMMMMo5eeeeeoo%ookksssssssssfkjkoo&1oeeeee5ookckke",
"MMMMMo,eeeeeeoooooooozkkkkbbbkooo3=5,oeeeee5ookckjo",
"MMMMMo4e9e7eeoooo,Ooooooo ,v5oe,5,,15%eeee,oockkkke",
"MMMMo;eeeeeeeoooo,+%#63ee=ebe,e5,,5,,oee9e5%okkkkko",
"MMMMo,eeeeeeeoooo,oO,,:er,eke,e,,,<1,oeee=ookkkkkko",
"MMMo5reeeeeeeeooo,O$,,,e,,ebe,e,,,6,oeee9>oockkkkko",
"MMMo,eeeeeeeeeeoo3o#1*5r,>eke5e,,-,oyeee,o#kckkkkk,",
"MMo,eeeeeeeeeeeeoooo65w0,1ede=e>5o eeeee5ookkkkkkk,",
"MMo5eeeeeeeeeeeeeeoo 5ee5,efe,ooOreeewe3ookckkkkkkM",
"Mo,eeeeeeeeeeeewee9eeO o#oooooyuee7eere5ookckkkkkkM",
"Mo,eeeeeeeeeeeeeue7eeeeeeteeee8eeeee9e>oojkkkkkkkMM",
"o,eeeeeeeeeerereeeeeeeeeetrweeeeeeeees,oockkkkkkkMM",
",,,,,,,,,,,,ee5,t5,,sss,j,ssndmsskfe,,ookzkkkkkkMMM",
"OooooOooooooooo oooooooooooooooooo.oooookkkkkkkkMMM",
"#oooooooooooooooooooooooooooooooooooooookkkkkkkMMMM",
" %ooooooooooooooooooooooooooooooooooooookkkkkkkMMMM",
"@#ooooooooooooooooooooooooooooooooooooookkkkkkMMMMM",
"ooooooooooooooooooooooooooooooooooooooookkkkkkMMMMM",
"ooooooooooooooooooooooooooooooooooooooookkkzkMMMMMM",
"%oooooooooooooooooooooooooooooooooooooookkkkkMMMMMM",
"ooooooooooooooooooooooooooooooooooooooookkkkMMMMMMM",
"OoooooooooooooooooooooooooooooooooooooookkkkMMMMMMM",
"ooooooooooooooooooooooooooooooooooooooookkkMMMMMMMM",
"ooooooooooooooooooooooooooooooooooooooookkkMMMMMMMM",
"ooooooooooooooooooooooooooooooooooooooookkMMMMMMMMM",
"ooooooooooooooooooooooooooooooooooooooookkMMMMMMMMM",
"oooooooooooooooooooooooooooooooooooooooojMMMMMMMMMM",
"ooooooooooooooooooooooooooooooooooooooookMMMMMMMMMM",
"ooooooooooooooooooooooooooooooooooooooooMMMMMMMMMMM",
"ooooooooooooooooooooooooooooooooooooooooMMMMMMMMMMM"
};
