/* XPM */
static char *result[] = {
/* columns rows colors chars-per-pixel */
"40 24 17 1 ",
"  c black",
". c #552B1E",
"X c #562C1E",
"o c #592E1E",
"O c #5F321F",
"+ c #613420",
"@ c #673721",
"# c #673821",
"$ c #6C3B22",
"% c #703E23",
"& c #723F24",
"* c #733F24",
"= c #764124",
"- c #784325",
"; c #794325",
": c #7F4726",
"> c #00ff16",
/* pixels */
">>>>>>>>>> .o:. >>>>>>>> .::. >>>>>>>>>>",
">>>>>>>>>> .*:. >>>>>>>> .&:. >>>>>>>>>>",
">>>>>>>>>> .::. >>>>>>>> .X:. >>>>>>>>>>",
">>>>>>>>>> .::. >>>>>>>> .=:. >>>>>>>>>>",
">>>>>>>>   .::.          .::.   >>>>>>>>",
">>>>>>>> ..:$::..........::::.. >>>>>>>>",
">>>>>>>> :::::::::::::::::::::: >>>>>>>>",
">>>>>>>> ..::::..........::;:.. >>>>>>>>",
">>>>>>>>   .$:.          .::.   >>>>>>>>",
">>>>>>>>>> .$:. >>>>>>>> .::. >>>>>>>>>>",
">>>>>>>>>> .::. >>>>>>>> .O:. >>>>>>>>>>",
">>>>>>>>>> .:.. >>>>>>>> .:-. >>>>>>>>>>",
">>>>>>>>>> .:+. >>>>>>>> .:O. >>>>>>>>>>",
">>>>>>>>>> .::. >>>>>>>> .::. >>>>>>>>>>",
">>>>>>>>>> .O:. >>>>>>>> .::. >>>>>>>>>>",
">>>>>>>>>> .-:. >>>>>>>> .X:. >>>>>>>>>>",
">>>>>>>>   .::.          .#:.   >>>>>>>>",
">>>>>>>> ..::::..........::%:.. >>>>>>>>",
">>>>>>>> :::::::::::::::::::::: >>>>>>>>",
">>>>>>>> ..:$::..........::::.. >>>>>>>>",
">>>>>>>>   .::.          .:;.   >>>>>>>>",
">>>>>>>>>> .:-. >>>>>>>> .:@. >>>>>>>>>>",
">>>>>>>>>> .:O. >>>>>>>> .O:. >>>>>>>>>>",
">>>>>>>>>> .::. >>>>>>>> .::. >>>>>>>>>>"
};
