/* XPM */
static char *result[] = {
/* columns rows colors chars-per-pixel */
"40 24 44 1 ",
"  c black",
". c #000100",
"X c #000001",
"o c #000101",
"O c #010101",
"+ c #636300",
"@ c #646300",
"# c #656300",
"$ c #636400",
"% c #83831F",
"& c #84841F",
"* c #838420",
"= c #848420",
"- c #858420",
"; c #848520",
": c #858520",
"> c #848421",
", c #C4C51F",
"< c #C5C71E",
"1 c #C4C61F",
"2 c #C5C61F",
"3 c #C5C71F",
"4 c #C6C61F",
"5 c #C6C71F",
"6 c #C4C620",
"7 c #C5C620",
"8 c #C5C720",
"9 c #C5C621",
"0 c #C6C620",
"q c #C6C720",
"w c #C6C721",
"e c #E5E741",
"r c #E6E740",
"t c #E7E740",
"y c #E6E741",
"u c #E7E741",
"i c #E6E742",
"p c #E6E840",
"a c #E6E841",
"s c #E7E842",
"d c #E6E7E6",
"f c #E7E7E7",
"g c #E7E7E8",
"h c #00ff16",
/* pixels */
"hhhhhhhhhhhhhhh         hhhhhhhhhhhhhhhh",
"hhhhhhhhhhhhh .:=8777777X hhhhhhhhhhhhhh",
"hhhhhhhhhhhhX+=w09yyiyyyq8Xhhhhhhhhhhhhh",
"hhhhhhhhhhh +:q7rupyyuffua3ohhhhhhhhhhhh",
"hhhhhhhhhh +  6iyyyyyygffry0 hhhhhhhhhhh",
"hhhhhhhhh +   yyyyyyyyuffiyyqXhhhhhhhhhh",
"hhhhhhhhh X  7yyyyyyyyutyiyy7.hhhhhhhhhh",
"hhhhhhhh #=  eypyyyyyyyyyyyyi0 hhhhhhhhh",
"hhhhhhhhO@=<77yuyyyyyyyyyyyis7 hhhhhhhhh",
"hhhhhhhhh =709yyyyyyyyyyuuyd71 hhhhhhhhh",
"hhhhhhhhh ;%777yyyyyyyyyyyfuw7Xhhhhhhhhh",
"hhhhhhhhhh =7777yyyyyyyyyyy73= hhhhhhhhh",
"hhhhhhhhhhh >8777eyyyyyyeu074-Xhhhhhhhhh",
"hhhhhhhhhhhh  w,q87ayyy777w5-@ hhhhhhhhh",
"hhhhhhhhhhhhhh 770707777278*- hhhhhhhhhh",
"hhhhhhhhhhh   =->=77777777==+ hhhhhhhhhh",
"hhhhhhhhhh +++==========&=&+ hhhhhhhhhhh",
"hhhhhhhhhhh +@++========>++ hhhhhhhhhhhh",
"hhhhhhhhhhhhX+++++++++++++Xhhhhhhhhhhhhh",
"hhhhhhhhhhh    $++++++++ X   hhhhhhhhhhh",
"hhhhhhhhhh X    X X           hhhhhhhhhh",
"hhhhhhhhhhh  O.   X          hhhhhhhhhhh",
"hhhhhhhhhhhhh  X.      Ohhhhhhhhhhhhhhhh",
"hhhhhhhhhhhhhhhhhhhhhhhhhhhhhhhhhhhhhhhh"
};
