/* XPM */
static char *result[] = {
/* columns rows colors chars-per-pixel */
"40 24 38 1 ",
"  c black",
". c #010000",
"X c #000100",
"o c #000001",
"O c #010001",
"+ c #000101",
"@ c #010101",
"# c #636300",
"$ c #646300",
"% c #636400",
"& c #84841F",
"* c #848420",
"= c #858420",
"- c #848520",
"; c #858520",
": c #848421",
"> c #C4C61F",
", c #C5C71F",
"< c #C6C71F",
"1 c #C5C620",
"2 c #C5C720",
"3 c #C5C621",
"4 c #C6C620",
"5 c #C6C720",
"6 c #C6C721",
"7 c #E5E741",
"8 c #E6E740",
"9 c #E7E740",
"0 c #E6E741",
"q c #E7E741",
"w c #E6E742",
"e c #E6E840",
"r c #E6E841",
"t c #E7E842",
"y c #E6E7E6",
"u c #E7E7E7",
"i c #E7E7E8",
"p c #00ff16",
/* pixels */
"ppppppppppppppp         pppppppppppppppp",
"ppppppppppppp X;*21  111o pppppppppppppp",
"ppppppppppppo   43    0052oppppppppppppp",
"ppppppppppp #;  8q  0quuqr,+pppppppppppp",
"pppppppppp #*  w000  0iuu804 ppppppppppp",
"ppppppppp #*<300000000quuw005opppppppppp",
"ppppppppp #-1100000000q90w001Xpppppppppp",
"pppppppp #**,70e000000000000w4 ppppppppp",
"pppppppp@#*           00000wt1 ppppppppp",
"pppppppp                 q0y1> ppppppppp",
"ppppppppO                  q61oppppppppp",
"ppppppppp                   ,* ppppppppp",
"ppppppppp      ## ####       =oppppppppp",
"ppppppppo     ## ###         $ ppppppppp",
"ppppppppp     #####         = pppppppppp",
"ppppppppp #    ##         **# pppppppppp",
"pppppppppp #            &*&# ppppppppppp",
"pppppppppppo#$       ***:## pppppppppppp",
"ppppppppppppo#############oppppppppppppp",
"pppppppppp     %######## o  pppppppppppp",
"ppppppppp  o    o o          ppppppppppp",
"pppppppppp.  @X   o         pppppppppppp",
"ppppppppppppp  oX      @pppppppppppppppp",
"pppppppppppppppppppppppppppppppppppppppp"
};
