/* XPM */
static char *result[] = {
/* columns rows colors chars-per-pixel */
"40 24 46 1 ",
"  c black",
". c #010000",
"X c #000100",
"o c #000001",
"O c #010001",
"+ c #010101",
"@ c #636300",
"# c #636301",
"$ c #646300",
"% c #636400",
"& c #84841F",
"* c #85841F",
"= c #84851F",
"- c #838420",
"; c #848420",
": c #858420",
"> c #858520",
", c #848421",
"< c #848521",
"1 c #858522",
"2 c #C5C61E",
"3 c #C4C61F",
"4 c #C5C61F",
"5 c #C5C71F",
"6 c #C6C71F",
"7 c #C5C620",
"8 c #C5C720",
"9 c #C5C621",
"0 c #C6C620",
"q c #C6C720",
"w c #C7C721",
"e c #C8C721",
"r c #E5E641",
"t c #E5E741",
"y c #E6E740",
"u c #E6E741",
"i c #E7E741",
"p c #E6E742",
"a c #E7E742",
"s c #E6E840",
"d c #E7E842",
"f c #E7E6E7",
"g c #E7E7E7",
"h c #E7E8E6",
"j c #E7E7E8",
"k c #00ff16",
/* pixels */
"kkkkkkkkkkkkkkk      Xo kkkkkkkkkkkkkkkk",
"kkkkkkkkkkkkk X;,7777790  kkkkkkkkkkkkkk",
"kkkkkkkkkkkk @;777uuduii77 kkkkkkkkkkkkk",
"kkkkkkkkkkkX%,79puuuuighuu7 kkkkkkkkkkkk",
"kkkkkkkkkk @154rpuuuuafjguu0 kkkkkkkkkkk",
"kkkkkkkkk @:87uiuuuurargguoow kkkkkkkkkk",
"kkkkkkkkko$;87uuuuuuuu +tu    kkkkkkkkkk",
"kkkkkkkk @;77uuuuuuuu   +pd  5 kkkkkkkkk",
"kkkkkkkk @,797uuuuuuuuu+ uisu7okkkkkkkkk",
"kkkkkkkk $,573uuuuuuuu  uuig7eokkkkkkkkk",
"kkkkkkkk @;;877iuuuuuuyuuugu07okkkkkkkkk",
"kkkkkkkk @,,7979uuutiuupuuu77o kkkkkkkkk",
"kkkkkkkk @@;;9777uiuuuuuyi8  =okkkkkkkkk",
"kkkkkkkk $@;&>o  07uuuuo Xo7;% kkkkkkkkk",
"kkkkkkkkkX@@,:,5q o   o7706;: kkkkkkkkkk",
"kkkkkkkkko@@@&<;*;57277070,:$ kkkkkkkkkk",
"kkkkkkkkkk @@#-;;=;;:;:;;:;@Xkkkkkkkkkkk",
"kkkkkkkkkkko@@@@;;;;:;;;;$$ kkkkkkkkkkkk",
"kkkkkkkkkkkk @#$@@@@@@@@@$okkkkkkkkkkkkk",
"kkkkkkkkkk    +@@@@@@@@@ .o kkkkkkkkkkkk",
"kkkkkkkkko      o    .  Oo   kkkkkkkkkkk",
"kkkkkkkkkk               oo kkkkkkkkkkkk",
"kkkkkkkkkkkkk          Okkkkkkkkkkkkkkkk",
"kkkkkkkkkkkkkkkkkkkkkkkkkkkkkkkkkkkkkkkk"
};
