/* XPM */
static char *result[] = {
/* columns rows colors chars-per-pixel */
"40 24 41 1 ",
"  c black",
". c #000100",
"X c #000001",
"o c #000101",
"O c #010101",
"+ c #636300",
"@ c #646300",
"# c #636400",
"$ c #84841F",
"% c #838420",
"& c #848420",
"* c #858420",
"= c #858520",
"- c #848421",
"; c #C4C51F",
": c #C5C71E",
"> c #C4C61F",
", c #C5C61F",
"< c #C5C71F",
"1 c #C6C61F",
"2 c #C6C71F",
"3 c #C5C620",
"4 c #C5C720",
"5 c #C5C621",
"6 c #C6C620",
"7 c #C6C720",
"8 c #C6C721",
"9 c #C8C623",
"0 c #E5E741",
"q c #E6E740",
"w c #E7E740",
"e c #E6E741",
"r c #E7E741",
"t c #E6E742",
"y c #E6E840",
"u c #E6E841",
"i c #E7E842",
"p c #E6E7E6",
"a c #E7E7E7",
"s c #E7E7E8",
"d c #00ff16",
/* pixels */
"ddddddddddddddd         dddddddddddddddd",
"ddddddddddddd .=&4333333X dddddddddddddd",
"ddddddddddddX+&865eeteee74Xddddddddddddd",
"ddddddddddd    3qryeeraaru<odddddddddddd",
"dddddddddd     teeeeeesaaqe6 ddddddddddd",
"ddddddddd +  3eeeeeeeeraatee7Xdddddddddd",
"ddddddddd +3 3eeeeeeeerwetee3.dddddddddd",
"ddddddddd &330eyeeeeeeeeeeeet6 ddddddddd",
"ddddddddd &:33ereeeeeeeeeeeti3 ddddddddd",
"dddddddddd 365eeeeeeeeeerrep3> ddddddddd",
"dddddddddd 9333eeeeeeeeeeear83Xddddddddd",
"ddddddddddd 3333eeeeeeeeeee3<& ddddddddd",
"dddddddddddd 43330eeeeee0r631*Xddddddddd",
"ddddddddddddd 8;743ueee33382*@ ddddddddd",
"dddddddddddddd 336363333,34%* dddddddddd",
"dddddddddddd  &*-&33333333&&+ dddddddddd",
"ddddddddddd  +&&&&&&&&&&$&$+ ddddddddddd",
"ddddddddddd +@++&&&&&&&&-++ dddddddddddd",
"ddddddddddddX+++++++++++++Xddddddddddddd",
"ddddddddddd    #++++++++ X   ddddddddddd",
"dddddddddd X    X X           dddddddddd",
"ddddddddddd  O.   X          ddddddddddd",
"ddddddddddddd  X.      Odddddddddddddddd",
"dddddddddddddddddddddddddddddddddddddddd"
};
