/* XPM */
static char *result[] = {
/* columns rows colors chars-per-pixel */
"40 24 44 1 ",
"  c black",
". c #010000",
"X c #000100",
"o c #000001",
"O c #010001",
"+ c #010101",
"@ c #636300",
"# c #636301",
"$ c #646300",
"% c #636400",
"& c #84841F",
"* c #85841F",
"= c #84851F",
"- c #838420",
"; c #848420",
": c #858420",
"> c #858520",
", c #848421",
"< c #848521",
"1 c #868420",
"2 c #858522",
"3 c #C4C61F",
"4 c #C5C61F",
"5 c #C5C71F",
"6 c #C5C620",
"7 c #C5C720",
"8 c #C5C621",
"9 c #C6C620",
"0 c #C7C721",
"q c #C8C721",
"w c #E5E641",
"e c #E5E741",
"r c #E6E740",
"t c #E6E741",
"y c #E7E741",
"u c #E6E742",
"i c #E7E742",
"p c #E6E840",
"a c #E7E842",
"s c #E7E6E7",
"d c #E7E7E7",
"f c #E7E8E6",
"g c #E7E7E8",
"h c #00ff16",
/* pixels */
"hhhhhhhhhhhhhhh      Xo hhhhhhhhhhhhhhhh",
"hhhhhhhhhhhhh X;,6666689  hhhhhhhhhhhhhh",
"hhhhhhhhhhhh @;666ttatyy66 hhhhhhhhhhhhh",
"hhhhhhhhhhhX%,68uttttydftt6 hhhhhhhhhhhh",
"hhhhhhhhhh @254wuttttisgdtt9 hhhhhhhhhhh",
"hhhhhhhhh @:76tyttttwiwddtoo0 hhhhhhhhhh",
"hhhhhhhhho$;76tttttttt +et    hhhhhhhhhh",
"hhhhhhhh @;66tttttttt   +ua  5 hhhhhhhhh",
"hhhhhhhh @,686ttttttttt+ typt6ohhhhhhhhh",
"hhhhhhhh $,563tttttttt  ttyd6qohhhhhhhhh",
"hhhhhhhh @;;766yttttttrtttdt96ohhhhhhhhh",
"hhhhhhhh @,,6868ttteyttuttt6 o hhhhhhhhh",
"hhhhhhhh @@;;8666tyttttt      ohhhhhhhhh",
"hhhhhhhh $@;&>o    tt  o Xo    hhhhhhhhh",
"hhhhhhhhhX@@,:,5  o   o     1 hhhhhhhhhh",
"hhhhhhhhho@@@&<;*;5     69,:$ hhhhhhhhhh",
"hhhhhhhhhh @@#-;;=;;:;:;;:;@Xhhhhhhhhhhh",
"hhhhhhhhhhho@@@@;;;;:;;;;$$ hhhhhhhhhhhh",
"hhhhhhhhhhhh @#$@@@@@@@@@$ohhhhhhhhhhhhh",
"hhhhhhhhhh    +@@@@@@@@@ .o hhhhhhhhhhhh",
"hhhhhhhhho      o    .  Oo   hhhhhhhhhhh",
"hhhhhhhhhh               oo hhhhhhhhhhhh",
"hhhhhhhhhhhhh          Ohhhhhhhhhhhhhhhh",
"hhhhhhhhhhhhhhhhhhhhhhhhhhhhhhhhhhhhhhhh"
};
