/* XPM */
static char *result[] = {
/* columns rows colors chars-per-pixel */
"40 24 46 1 ",
"  c black",
". c #010000",
"X c #000100",
"o c #000001",
"O c #010001",
"+ c #000101",
"@ c #010101",
"# c #606000",
"$ c #616100",
"% c #626200",
"& c #636300",
"* c #646300",
"= c #636400",
"- c #84841F",
"; c #84851F",
": c #838420",
"> c #838520",
", c #848420",
"< c #858420",
"1 c #848520",
"2 c #858520",
"3 c #848421",
"4 c #C4C51F",
"5 c #C4C61F",
"6 c #C5C61F",
"7 c #C5C71F",
"8 c #C6C71F",
"9 c #C4C620",
"0 c #C5C620",
"q c #C5C720",
"w c #C5C621",
"e c #C6C620",
"r c #C6C720",
"t c #C6C721",
"y c #E5E741",
"u c #E6E740",
"i c #E6E741",
"p c #E7E741",
"a c #E6E742",
"s c #E6E840",
"d c #E6E841",
"f c #E7E842",
"g c #E6E7E6",
"h c #E7E7E7",
"j c #E7E7E8",
"k c #00ff16",
/* pixels */
"kkkkkkkkkkkkkkk         kkkkkkkkkkkkkkkk",
"kkkkkkkkkkkkk X2,q000000o kkkkkkkkkkkkkk",
"kkkkkkkkkkkko&,tewiiaiiirqokkkkkkkkkkkkk",
"kkkkkkkkkkk &2r0upsiiphhpd7+kkkkkkkkkkkk",
"kkkkkkkkkk &,09aiiiiiijhhuie kkkkkkkkkkk",
"kkkkkkkkk &,8wiiiiiiiiphhaiirokkkkkkkkkk",
"kkkkkkkkk %10  iiii  iiuiaii0Xkkkkkkkkkk",
"kkkkkkkk #>0    ii    iiiiiiae kkkkkkkkk",
"kkkkkkkk@&>000  ii  iiiiiiiaf0 kkkkkkkkk",
"kkkkkkkk $>00  iiii  iiippig05 kkkkkkkkk",
"kkkkkkkkO%>0000iiiiiiiiiiihpt0okkkkkkkkk",
"kkkkkkkk &,,0000iiiiiiiiiii07, kkkkkkkkk",
"kkkkkkkk o&,3q000yiiiiiiype  <okkkkkkkkk",
"kkkkkkkko*o <-t4rq0diii    8<* kkkkkkkkk",
"kkkkkkkkk *=Xo         060q:< kkkkkkkkkk",
"kkkkkkkkk &&&;,<3,00000000,,& kkkkkkkkkk",
"kkkkkkkkkk &&&,,,,,,,,,,-,-& kkkkkkkkkkk",
"kkkkkkkkkkko&*&&,,,,,,,,3&& kkkkkkkkkkkk",
"kkkkkkkkkkkko&&&&&&&&&&&&&okkkkkkkkkkkkk",
"kkkkkkkkkk     =&&&&&&&& o  kkkkkkkkkkkk",
"kkkkkkkkk  o    o o          kkkkkkkkkkk",
"kkkkkkkkkk.  @X   o         kkkkkkkkkkkk",
"kkkkkkkkkkkkk  oX      @kkkkkkkkkkkkkkkk",
"kkkkkkkkkkkkkkkkkkkkkkkkkkkkkkkkkkkkkkkk"
};
