/* XPM */
static char *result[] = {
/* columns rows colors chars-per-pixel */
"40 24 42 1 ",
"  c black",
". c #000100",
"X c #000001",
"o c #010001",
"O c #010101",
"+ c #636300",
"@ c #646300",
"# c #626400",
"$ c #636400",
"% c #838520",
"& c #848420",
"* c #858420",
"= c #848421",
"- c #848521",
"; c #858521",
": c #C5C61F",
"> c #C5C71F",
", c #C6C61F",
"< c #C6C71F",
"1 c #C5C620",
"2 c #C5C720",
"3 c #C5C621",
"4 c #C4C721",
"5 c #C6C620",
"6 c #C7C620",
"7 c #C6C720",
"8 c #E5E741",
"9 c #E6E740",
"0 c #E7E740",
"q c #E6E641",
"w c #E6E741",
"e c #E7E741",
"r c #E6E742",
"t c #E7E742",
"y c #E5E841",
"u c #E7E842",
"i c #E7E7DF",
"p c #E6E6E5",
"a c #E7E7E6",
"s c #E7E8E7",
"d c #E8E8E3",
"f c #00ff16",
/* pixels */
"fffffffffffffff X X.X  Xffffffffffffffff",
"fffffffffffff  &=711115 X ffffffffffffff",
"ffffffffffff @=211e  wr0   fffffffffffff",
"fffffffffffX+-51we    spy   ffffffffffff",
"ffffffffff +*75wewww   aiyy6 fffffffffff",
"fffffffffX+&,5weweww  wdar8w5 ffffffffff",
"fffffffffX@=<1rwwwwwwwwwww907 ffffffffff",
"ffffffffX@*13w9wwwwwwwwuwtqt   fffffffff",
"ffffffff $%135wwwwwwwwww      ffffffffff",
"ffffffff @&511wwwwwww        fffffffffff",
"ffffffffO+&=115wwww         ffffffffffff",
"ffffffff +&&5:41w          w fffffffffff",
"ffffffffO+$==>3        #    w ffffffffff",
"ffffffff ++&&*X     ##  ##  w ffffffffff",
"fffffffff ++*&& X     #####   ffffffffff",
"fffffffffX+@+=;= XOXX  ##     ffffffffff",
"ffffffffff +@+&&&    X       fffffffffff",
"fffffffffff ++@+&&&       + ffffffffffff",
"ffffffffffff +++++++++++++Xfffffffffffff",
"ffffffffff     ++++$+@++  X ffffffffffff",
"fffffffffX             ooX   fffffffffff",
"ffffffffff               XX ffffffffffff",
"fffffffffffff          offffffffffffffff",
"ffffffffffffffffffffffffffffffffffffffff"
};
