/* XPM */
static char *result[] = {
/* columns rows colors chars-per-pixel */
"40 24 39 1 ",
"  c black",
". c #010000",
"X c #000100",
"o c #000001",
"O c #010001",
"+ c #000101",
"@ c #010101",
"# c #636300",
"$ c #646300",
"% c #636400",
"& c #84841F",
"* c #848420",
"= c #858420",
"- c #848520",
"; c #858520",
": c #848421",
"> c #C4C61F",
", c #C5C71F",
"< c #C6C71F",
"1 c #C5C620",
"2 c #C5C720",
"3 c #C5C621",
"4 c #C6C620",
"5 c #C6C720",
"6 c #C6C721",
"7 c #E6E83F",
"8 c #E5E741",
"9 c #E6E740",
"0 c #E7E740",
"q c #E6E741",
"w c #E7E741",
"e c #E6E742",
"r c #E6E840",
"t c #E6E841",
"y c #E7E842",
"u c #E6E7E6",
"i c #E7E7E7",
"p c #E7E7E8",
"a c #00ff16",
/* pixels */
"aaaaaaaaaaaaaaa         aaaaaaaaaaaaaaaa",
"aaaaaaaaaaaaa X;*21  111o aaaaaaaaaaaaaa",
"aaaaaaaaaaaao   43    qq52oaaaaaaaaaaaaa",
"aaaaaaaaaaa #;  9w  qwiiwt,+aaaaaaaaaaaa",
"aaaaaaaaaa #*  eqqq  qpii9q4 aaaaaaaaaaa",
"aaaaaaaaa #*<3qqqqqqqqwiieqq5oaaaaaaaaaa",
"aaaaaaaaa #-11qqqqqqqqw0qeqq1Xaaaaaaaaaa",
"aaaaaaaa #**,8qrqqqqqqqqqqqqe4 aaaaaaaaa",
"aaaaaaaa@#*qqqqqqqqqqqqqqqqey1 aaaaaaaaa",
"aaaaaaaa #*77777777777qqqwqu1> aaaaaaaaa",
"aaaaaaaaO#*           777qiw61oaaaaaaaaa",
"aaaaaaaaa                771,* aaaaaaaaa",
"aaaaaaaaa                  16=oaaaaaaaaa",
"aaaaaaaao     ## ###         $ aaaaaaaaa",
"aaaaaaaaa     #####         = aaaaaaaaaa",
"aaaaaaaaa #    ##         **# aaaaaaaaaa",
"aaaaaaaaaa #            &*&# aaaaaaaaaaa",
"aaaaaaaaaaao#$       ***:## aaaaaaaaaaaa",
"aaaaaaaaaaaao#############oaaaaaaaaaaaaa",
"aaaaaaaaaa     %######## o  aaaaaaaaaaaa",
"aaaaaaaaa  o    o o          aaaaaaaaaaa",
"aaaaaaaaaa.  @X   o         aaaaaaaaaaaa",
"aaaaaaaaaaaaa  oX      @aaaaaaaaaaaaaaaa",
"aaaaaaaaaaaaaaaaaaaaaaaaaaaaaaaaaaaaaaaa"
};
