/* XPM */
static char *result[] = {
/* columns rows colors chars-per-pixel */
"40 24 45 1 ",
"  c black",
". c #010000",
"X c #000100",
"o c #000001",
"O c #010001",
"+ c #000101",
"@ c #010101",
"# c #636300",
"$ c #646300",
"% c #636400",
"& c #83831F",
"* c #84841F",
"= c #84851F",
"- c #838420",
"; c #848420",
": c #858420",
"> c #848520",
", c #858520",
"< c #848421",
"1 c #C4C51F",
"2 c #C4C61F",
"3 c #C5C61F",
"4 c #C5C71F",
"5 c #C6C61F",
"6 c #C6C71F",
"7 c #C4C620",
"8 c #C5C620",
"9 c #C5C720",
"0 c #C5C621",
"q c #C6C620",
"w c #C6C720",
"e c #C6C721",
"r c #E5E741",
"t c #E6E740",
"y c #E7E740",
"u c #E6E741",
"i c #E7E741",
"p c #E6E742",
"a c #E6E840",
"s c #E6E841",
"d c #E7E842",
"f c #E6E7E6",
"g c #E7E7E7",
"h c #E7E7E8",
"j c #00ff16",
/* pixels */
"jjjjjjjjjjjjjjj         jjjjjjjjjjjjjjjj",
"jjjjjjjjjjjjj X,;9888888o jjjjjjjjjjjjjj",
"jjjjjjjjjjjjo#;eq0uupuuuw9ojjjjjjjjjjjjj",
"jjjjjjjjjjj #,w8tiauuiggis4+jjjjjjjjjjjj",
"jjjjjjjjjj #;87puuuuuuhggtuq jjjjjjjjjjj",
"jjjjjjjjj #;60uuuuuuuuiggpuuwojjjjjjjjjj",
"jjjjjjjjj o>88uuuuuuuuiyupuu8Xjjjjjjjjjj",
"jjjjjjjj @  4ruauuuuuuuuuuuupq jjjjjjjjj",
"jjjjjjjj@$ o88uiuuuuuuuuuuupd8 jjjjjjjjj",
"jjjjjjjj   8q0uuuuuuuuuuiiuf82 jjjjjjjjj",
"jjjjjjjjO#>&888uuuuuuuuuuugie8ojjjjjjjjj",
"jjjjjjjj #;;8888uuuuuuuuuuu84; jjjjjjjjj",
"jjjjjjjj o#;<9888ruuuuuuriq85:ojjjjjjjjj",
"jjjjjjjjo$o :*e1w98suuu888e6:$ jjjjjjjjj",
"jjjjjjjjj $%Xo 88q8q8888389-: jjjjjjjjjj",
"jjjjjjjjj ###=;:<;88888888;;# jjjjjjjjjj",
"jjjjjjjjjj ###;;;;;;;;;;*;*# jjjjjjjjjjj",
"jjjjjjjjjjjo#$##;;;;;;;;<## jjjjjjjjjjjj",
"jjjjjjjjjjjjo#############ojjjjjjjjjjjjj",
"jjjjjjjjjj     %######## o  jjjjjjjjjjjj",
"jjjjjjjjj  o    o o          jjjjjjjjjjj",
"jjjjjjjjjj.  @X   o         jjjjjjjjjjjj",
"jjjjjjjjjjjjj  oX      @jjjjjjjjjjjjjjjj",
"jjjjjjjjjjjjjjjjjjjjjjjjjjjjjjjjjjjjjjjj"
};
