/* XPM */
static char *result[] = {
/* columns rows colors chars-per-pixel */
"40 24 44 1 ",
"  c black",
". c #010000",
"X c #000100",
"o c #000001",
"O c #010001",
"+ c #000101",
"@ c #010101",
"# c #636300",
"$ c #646300",
"% c #636400",
"& c #83831F",
"* c #84841F",
"= c #84851F",
"- c #838420",
"; c #838520",
": c #848420",
"> c #858420",
", c #848520",
"< c #858520",
"1 c #848421",
"2 c #C4C51F",
"3 c #C5C61F",
"4 c #C5C71F",
"5 c #C6C71F",
"6 c #C4C620",
"7 c #C5C620",
"8 c #C5C720",
"9 c #C5C621",
"0 c #C6C620",
"q c #C6C720",
"w c #C6C721",
"e c #E5E741",
"r c #E6E740",
"t c #E7E740",
"y c #E6E741",
"u c #E7E741",
"i c #E6E742",
"p c #E6E840",
"a c #E6E841",
"s c #E7E842",
"d c #E6E7E6",
"f c #E7E7E7",
"g c #E7E7E8",
"h c #00ff16",
/* pixels */
"hhhhhhhhhhhhhhh         hhhhhhhhhhhhhhhh",
"hhhhhhhhhhhhh X<:8777777o hhhhhhhhhhhhhh",
"hhhhhhhhhhhho#:w09yyiyyyq8ohhhhhhhhhhhhh",
"hhhhhhhhhhh #<q7rupyyuffua4+hhhhhhhhhhhh",
"hhhhhhhhhh #:76iyyyyyygffry0 hhhhhhhhhhh",
"hhhhhhhhh #:59yyyyyyyyuffiyyqohhhhhhhhhh",
"hhhhhhhhh #,77yyyyyyyyutyiyy7Xhhhhhhhhhh",
"hhhhhhhh #;74eypyyyyyyyyyyyyi0 hhhhhhhhh",
"hhhhhhhh@#;777yuyyyyyyyyyyyis  hhhhhhhhh",
"hhhhhhhh #;709yyyyyyyyyyuuyd7 hhhhhhhhhh",
"hhhhhhhhO#,&777yyyyyyyyyyyfuw hhhhhhhhhh",
"hhhhhhhh #::7777yyyyyyyyyyy7 hhhhhhhhhhh",
"hhhhhhhh ##:18777eyyyyyyeu07 hhhhhhhhhhh",
"hhhhhhhho$#:>*w2q87ayyy777w5 hhhhhhhhhhh",
"hhhhhhhhh #%:::770707777378- hhhhhhhhhhh",
"hhhhhhhhh ###=:>1:77777777::# hhhhhhhhhh",
"hhhhhhhhhh ###::::::::::*:*# hhhhhhhhhhh",
"hhhhhhhhhhho#$##::::::::1## hhhhhhhhhhhh",
"hhhhhhhhhhhho#############ohhhhhhhhhhhhh",
"hhhhhhhhhh     %######## o  hhhhhhhhhhhh",
"hhhhhhhhh  o    o o          hhhhhhhhhhh",
"hhhhhhhhhh.  @X   o         hhhhhhhhhhhh",
"hhhhhhhhhhhhh  oX      @hhhhhhhhhhhhhhhh",
"hhhhhhhhhhhhhhhhhhhhhhhhhhhhhhhhhhhhhhhh"
};
