/* XPM */
static char *result[] = {
/* columns rows colors chars-per-pixel */
"40 24 42 1 ",
"  c black",
". c #010000",
"X c #000100",
"o c #000001",
"O c #010001",
"+ c #000101",
"@ c #010101",
"# c #626200",
"$ c #636300",
"% c #646300",
"& c #636400",
"* c #84841F",
"= c #909114",
"- c #838420",
"; c #838520",
": c #848420",
"> c #858420",
", c #848520",
"< c #858520",
"1 c #848421",
"2 c #C4C61F",
"3 c #C5C71F",
"4 c #C6C71F",
"5 c #C4C620",
"6 c #C5C620",
"7 c #C5C720",
"8 c #C5C621",
"9 c #C6C620",
"0 c #C6C720",
"q c #C6C721",
"w c #E5E741",
"e c #E6E740",
"r c #E6E741",
"t c #E7E741",
"y c #E6E742",
"u c #E6E840",
"i c #E6E841",
"p c #E7E842",
"a c #E6E7E6",
"s c #E7E7E7",
"d c #E7E7E8",
"f c #00ff16",
/* pixels */
"fffffffffffffff         ffffffffffffffff",
"fffffffffffff X<:7666666o ffffffffffffff",
"ffffffffffffo$:q98rryrrr07offfffffffffff",
"fffffffffff $<06eturrtssti3+ffffffffffff",
"ffffffffff $:65yrrrrrrdsser9 fffffffffff",
"fffffffff $:48rrrrrrrrtssyrr0offffffffff",
"fffffffff $,6  rrrr  rrrryrr6Xffffffffff",
"ffffffff #;6    rr    rrrrrry9 fffffffff",
"ffffffff@$;666  rr  rrrrrrryp6 fffffffff",
"ffffffff #;66  rrrr  rrrttra62 fffffffff",
"ffffffffO#;6666rrrrrrrrrrrstq6offfffffff",
"ffffffff  ::6666rrrrrrrrrrr63: fffffffff",
"ffffffff o  17666wrrrrrr     >offfffffff",
"ffffffffo%o                4>% fffffffff",
"fffffffff % Xo            7-> ffffffffff",
"fffffffff $$$          =66::$ ffffffffff",
"ffffffffff $$$::::::::::*:*$ fffffffffff",
"fffffffffffo$%$$::::::::1$$ ffffffffffff",
"ffffffffffffo$$$$$$$$$$$$$offfffffffffff",
"ffffffffff     &$$$$$$$$ o  ffffffffffff",
"fffffffff  o    o o          fffffffffff",
"ffffffffff.  @X   o         ffffffffffff",
"fffffffffffff  oX      @ffffffffffffffff",
"ffffffffffffffffffffffffffffffffffffffff"
};
