/* XPM */
static char *result[] = {
/* columns rows colors chars-per-pixel */
"40 24 45 1 ",
"  c black",
". c #010000",
"X c #000100",
"o c #000001",
"O c #010001",
"+ c #010101",
"@ c #636300",
"# c #646300",
"$ c #636400",
"% c #84841F",
"& c #838520",
"* c #848420",
"= c #858420",
"- c #848520",
"; c #848421",
": c #848521",
"> c #858521",
", c #C5C61F",
"< c #C5C71F",
"1 c #C6C61F",
"2 c #C6C71F",
"3 c #C5C620",
"4 c #C5C720",
"5 c #C5C621",
"6 c #C4C721",
"7 c #C6C620",
"8 c #C6C720",
"9 c #C6C721",
"0 c #E5E741",
"q c #E6E740",
"w c #E7E740",
"e c #E6E641",
"r c #E6E741",
"t c #E7E741",
"y c #E6E742",
"u c #E7E742",
"i c #E6E840",
"p c #E6E841",
"a c #E7E841",
"s c #E7E842",
"d c #E6E6E6",
"f c #E7E7E7",
"g c #E7E7E8",
"h c #E7E8E8",
"j c #00ff16",
/* pixels */
"jjjjjjjjjjjjjjj o oXo  ojjjjjjjjjjjjjjjj",
"jjjjjjjjjjjjj  *;8333373o jjjjjjjjjjjjjj",
"jjjjjjjjjjjj #;433trrryw32 jjjjjjjjjjjjj",
"jjjjjjjjjjjo@:73rtrirthdp   jjjjjjjjjjjj",
"jjjjjjjjjj @=87rtrrrr  ff    jjjjjjjjjjj",
"jjjjjjjjjo@*17rtrtrt    fyoo7 jjjjjjjjjj",
"jjjjjjjjjo#;23yrrrrrta  rrqw8 jjjjjjjjjj",
"jjjjjjjjo#=35rqrrrrrr  srueua2 jjjjjjjjj",
"jjjjjjjj $&357rrrrrrrrryriutt9.jjjjjjjjj",
"jjjjjjjj #*733rrrrrrrrrrutif7+jjjjjjjjjj",
"jjjjjjjj+@*;337rrrryrrr0prg ojjjjjjjjjjj",
"jjjjjjjj @**7,63rrrrrqrto   > jjjjjjjjjj",
"jjjjjjjj+@$;;<533ratoooo #  o* jjjjjjjjj",
"jjjjjjjj @@**=o .  oo@@@#@@  @ jjjjjjjjj",
"jjjjjjjjj @@=** o     @@ oo +ojjjjjjjjjj",
"jjjjjjjjjo@#@;>;*o+oo   o  o# jjjjjjjjjj",
"jjjjjjjjjj @#@*****%oo   o-@ jjjjjjjjjjj",
"jjjjjjjjjjj @@#@****;*-**@@ jjjjjjjjjjjj",
"jjjjjjjjjjjj @@@@@@@@$@@@@ojjjjjjjjjjjjj",
"jjjjjjjjjj     @@@@$@#@@  o jjjjjjjjjjjj",
"jjjjjjjjjo             OOo   jjjjjjjjjjj",
"jjjjjjjjjj               oo jjjjjjjjjjjj",
"jjjjjjjjjjjjj          Ojjjjjjjjjjjjjjjj",
"jjjjjjjjjjjjjjjjjjjjjjjjjjjjjjjjjjjjjjjj"
};
