/* XPM */
static char *result[] = {
/* columns rows colors chars-per-pixel */
"63 48 10 1 ",
"  c black",
". c #010000",
"X c #000100",
"o c #010100",
"O c #000001",
"+ c #010001",
"@ c #000101",
"# c #010101",
"$ c white",
"% c #00ff16",
/* pixels */
"%     %%% O%%%%%%%   O%%% X%%XO%%   o  %%     %%%%%%%%%%%%%  %%",
" $$$$$O% $$ %%%%% $$$$ % $$  $$  $$$$$$  $$$$$ %%%%%%%%%%% $$ %",
" $$# $$  $$ %%%% $$  $$  $$  $$ O$$    % $$  $$ %%%%%%%%% $$$ %",
" $$O $$ O$$O%%%%O$$# $$ % $$$$ % $$$$$o% $$  $$ %%%%%%%%%% $$ %",
" $$$$$ % $$ %%%% $$$$$$ %% $$ %% $$   %% $$$$$O%%%%%%%%%%% $$ %",
" $$   %%#$$#  O% $$ O$$ %% $$ %% $$    % $$  $$ %%%%%%%%%% $$X%",
" $$ %%%% $$$$$$ #$$  $$ %% $$ %% $$$$$$  $$  $$ %%%%%%%%%@$$$$ ",
"%  %%%%%%    O %%  %%OO%%%%  %%%       %%  %%O %%%%%%%%%%%    %",
"%%%%%%%%%%%%%%%%%%%%%%%%%%%%%%%%%%%%%%%%%%%%%%%%%%%%%%%%%%%%%%%",
"%%%%%%%%%%%%%%%%%%%%%%%%%%%%%%%%%%%%%%%%%%%%%%%%%%%%%%%%%%%%%%%",
"%%%%%%%%%%%%%%%%%%%%%%%%%%%%%%%%%%%%%%%%%%%%%%%%%%%%%%%%%%%%%%%",
"%%%%%%%%%%%%%%%%%%%%%%%%%%%%%%%%%%%%%%%%%%%%%%%%%%%%%%%%%%%%%%%",
"%%%%%%%%%%%%%%%%%%%%%%%%%%%%%%%%%%%%%%%%%%%%%%%%%%%%%%%%%%%%%%%",
"%%%%%%%%%%%%%%%%%%%%%%%%%%%%%%%%%%%%%%%%%%%%%%%%%%%%%%%%%%%%%%%",
"%%%%%%%%%%%%%%%%%%%%%%%%%%%%%%%%%%%%%%%%%%%%%%%%%%%%%%%%%%%%%%%",
"%%%%%%%%%%%%%%%%%%%%%%%%%%%%%%%%%%%%%%%%%%%%%%%%%%%%%%%%%%%%%%%",
"%%%%%%%%%%%%%%%%%%%%%%%%%%%%%%%%%%%%%%%%%%%%%%%%%%%%%%%%%%%%%%%",
"%%%%%%%%%%%%%%%%%%%%%%%%%%%%%%%%%%%%%%%%%%%%%%%%%%%%%%%%%%%%%%%",
"%%%%%%%%%%%%%%%%%%%%%%%%%%%%%%%%%%%%%%%%%%%%%%%%%%%%%%%%%%%%%%%",
"%%%%%%%%%%%%%%%%%%%%%%%%%%%%%%%%%%%%%%%%%%%%%%%%%%%%%%%%%%%%%%%",
"%%%%%%%%%%%%%%%%%%%%%%%%%%%%%%%%%%%%%%%%%%%%%%%%%%%%%%%%%%%%%%%",
"%%%%%%%%%%%%%%%%%%%%%%%%%%%%%%%%%%%%%%%%%%%%%%%%%%%%%%%%%%%%%%%",
"%%%%%%%%%%%%%%%%%%%%%%%%%%%%%%%%%%%%%%%%%%%%%%%%%%%%%%%%%%%%%%%",
"%%%%%%%%%%%%%%%%%%%%%%%%%%%%%%%%%%%%%%%%%%%%%%%%%%%%%%%%%%%%%%%",
"%%%%%%%%%%%%%%%%%%%%%%%%%%%%%%%%%%%%%%%%%%%%%%%%%%%%%%%%%%%%%%%",
"%%%%%%%%%%%%%%%%%%%%%%%%%%%%%%%%%%%%%%%%%%%%%%%%%%%%%%%%%%%%%%%",
"%%%%%%%%%%%%%%%%%%%%%%%%%%%%%%%%%%%%%%%%%%%%%%%%%%%%%%%%%%%%%%%",
"%%%%%%%%%%%%%%%%%%%%%%%%%%%%%%%%%%%%%%%%%%%%%%%%%%%%%%%%%%%%%%%",
"%%%%%%%%%%%%%%%%%%%%%%%%%%%%%%%%%%%%%%%%%%%%%%%%%%%%%%%%%%%%%%%",
"%%%%%%%%%%%%%%%%%%%%%%%%%%%%%%%%%%%%%%%%%%%%%%%%%%%%%%%%%%%%%%%",
"%%%%%%%%%%%%%%%%%%%%%%%%%%%%%%%%%%%%%%%%%%%%%%%%%%%%%%%%%%%%%%%",
"%%%%%%%%%%%%%%%%%%%%%%%%%%%%%%%%%%%%%%%%%%%%%%%%%%%%%%%%%%%%%%%",
"%%%%%%%%%%%%%%%%%%%%%%%%%%%%%%%%%%%%%%%%%%%%%%%%%%%%%%%%%%%%%%%",
"%%%%%%%%%%%%%%%%%%%%%%%%%%%%%%%%%%%%%%%%%%%%%%%%%%%%%%%%%%%%%%%",
"%%%%%%%%%%%%%%%%%%%%%%%%%%%%%%%%%%%%%%%%%%%%%%%%%%%%%%%%%%%%%%%",
"%%%%%%%%%%%%%%%%%%%%%%%%%%%%%%%%%%%%%%%%%%%%%%%%%%%%%%%%%%%%%%%",
"%%%%%%%%%%%%%%%%%%%%%%%%%%%%%%%%%%%%%%%%%%%%%%%%%%%%%%%%%%%%%%%",
"%%%%%%%%%%%%%%%%%%%%%%%%%%%%%%%%%%%%%%%%%%%%%%%%%%%%%%%%%%%%%%%",
"%%%%%%%%%%%%%%%%%%%%%%%%%%%%%%%%%%%%%%%%%%%%%%%%%%%%%%%%%%%%%%%",
"%%%%%%%%%%%%%%%%%%%%%%%%%%%%%%%%%%%%%%%%%%%%%%%%%%%%%%%%%%%%%%%",
"%%%%%%%%%     %%%    O %%% X  %%% O   %%% O%%  %%%%%%%%%%%%%%%%",
"%%%%%%%% $$$$$ % $$$$$$o% $$$$ % $$$$$ % $$  $$ %%%%%%%%%%%%%%%",
"%%%%%%%% $$  $$ O$$  O % $$X $$ +$$ X$$#O$$ O$$ %%%%%%%%%%%%%%%",
"%%%%%%%% $$  $$  $$$$$ % $$  $$  $$  $$ %.$$$$ %%%%%%%%%%%%%%%%",
"%%%%%%%% $$$$$ % $$   %%O$$$$$$  $$OX$$ %% $$ %%%%%%%%%%%%%%%%%",
"%%%%%%%% $$  $$  $$    %O$$  $$  $$  $$ %% $$ %%%%%%%%%%%%%%%%%",
"%%%%%%%% $$ O$$ .$$$$$$  $$  $$  $$$$$ %%% $$ %%%%%%%%%%%%%%%%%",
"%%%%%%%%%  %%  %%      %%  %%  %% X   %%%%% O%%%%%%%%%%%%%%%%%%"
};
