/* XPM */
static char *result[] = {
/* columns rows colors chars-per-pixel */
"235 52 88 1 ",
"  c #000001",
". c #651F00",
"X c #632000",
"o c #622100",
"O c #632100",
"+ c #632001",
"@ c #622101",
"# c #632101",
"$ c #632200",
"% c #632201",
"& c #642000",
"* c #642100",
"= c #652100",
"- c #642001",
"; c #652001",
": c #642101",
"> c #652101",
", c #642200",
"< c #856201",
"1 c #846301",
"2 c #856301",
"3 c #866201",
"4 c #866301",
"5 c #856302",
"6 c #866302",
"7 c #C5A41F",
"8 c #C5A51F",
"9 c #C6A41F",
"0 c #C6A51F",
"q c #C7A51F",
"w c #C5A61F",
"e c #C6A61F",
"r c #C5A420",
"t c #C5A520",
"y c #C6A420",
"u c #C6A520",
"i c #C7A520",
"p c #C6A521",
"a c #C7A521",
"s c #C5A620",
"d c #C5A621",
"f c #C6A620",
"g c #C7A620",
"h c #C6A621",
"j c #C7A621",
"k c #C6A522",
"l c #E5E83F",
"z c #E6E83F",
"x c #E5E640",
"c c #E5E740",
"v c #E5E641",
"b c #E5E741",
"n c #E6E740",
"m c #E7E740",
"M c #E6E641",
"N c #E7E641",
"B c #E6E741",
"V c #E7E741",
"C c #E5E742",
"Z c #E6E742",
"A c #E7E742",
"S c #E6E743",
"D c #E8E741",
"F c #E5E840",
"G c #E5E841",
"H c #E6E840",
"J c #E7E840",
"K c #E6E841",
"L c #E7E841",
"P c #E5E842",
"I c #E6E842",
"U c #E7E842",
"Y c #E8E841",
"T c #E5E6A4",
"R c #E5E7A4",
"E c #E5E6A5",
"W c #E5E7A5",
"Q c #E6E7A4",
"! c #E6E6A5",
"~ c #E6E7A5",
"^ c #E7E7A5",
"/ c #E6E6A6",
"( c #E7E6A6",
") c #E6E7A6",
"_ c #E7E7A6",
"` c #E5E8A6",
"' c #E7E8A6",
"] c #00ff16",
/* pixels */
"]]]]]]]]]]]]]]]]]]]]]]]]]]]]]]]]]]]]]]]]]]]]]]]]]]]]]]]]]]]]]]]]]]]]]]]]]]]]]]]]]]]]]]]BB~B)ZB~~H~]]]]]]]]]]]]]]]]]]]]]]]]]]]]]]]]]]]]]]]]]]]]]]]]]]]]]]]]]]]]]]]]]]]]]]]]]]]]]]]]]]]]]]]]]]]]]]]]]]]]]]]]]]]]]]]]]]]]]]]]]]]]]]]]]]]]]]]]]",
"]]]]]]]]]]]]]]]]]]]]]]]]]]]]]]]]]]]]]]]]]]]]]]]]]]]]]]]]]]]]]]]]]]]]]]]]]]]]]]]]]]]]BBVpuuuuuuuuinVV~]]]]]]]]]]]]]]]]]]]]]]]]]]]]]]]]]]]]]]]]]]]]]]]]]]]]]]]]]]]]]]]]]]]]]]]]]]]]]]]]]]]]]]]]]]]]]]]]]]]]]]]]]]]]]]]]]]]]]]]]]]]]]]]]]]]]]]",
"]]]]]]]]]]]]]]]]]]]]]]]]]]]]]]]]]]]]]]]]]]]]]]]]]]]]]]]]]]]]]]]]]]]]]]]]]]]]]]]]]ABnupfupupuf0uiuu0sBY~~]]]]]]]]]]]]]]]]]]]]]]]]]]]]]]]]]]]]]]]]]]]]]]]]]]]]]]]]]]]]]]]]]]]]]]]]]]]]]]]]]]]]]]]]]]]]]]]]]]]]]]]]]]]]]]]]]]]]]]]]]]]]]]]]]]]",
"]]]]]]]]]]]]]]]]]]]]]]]]]]]]]]]]]]]]]]]]]]]]]]]]]]]]]]]]]]]]]]]]]]]]]]]]]]]]]]]]Vp0upuueuu0euuiBuuuHiuuBQ~]]]]]]]]]]]]]]]]]]]]]]]]]]]]]]]]]]]]]]]]]]]]]]]]]]]]]]]]]]]]]]]]]]]]]]]]]]]]]]]]]]]]]]]]]]]]]]]]]]]]]]]]]]]]]]]]]]]]]]]]]]]]]]]]]",
"]]]]]]]]]]]]]]]]]]]]]]]]]]]]]]]]]]]]]]]]]]]]]]]]]]]]]]]]]]]]]]]]]]]]]]]]]]]]]]Vbuuupuuueuuuu9puuuuVuVuBuV~W]]]]]]]]]]]]]]]]]]]]]]]]]]]]]]]]]]]]]]]]]]]]]]]]]]]]]]]]]]]]]]]]]]]]]]]]]]]]]]]]]]]]]]]]]]]]]]]]]]]]]]]]]]]]]]]]]]]]]]]]]]]]]]]]",
"]]]]]]]]]]]]]]]]]]]]]]]]]]]]]]]]]]]]]]]]]]]]]]]]]]]]]]]]]]]]]]]]]]]]]]]]]]]]]VauueiuuuuuuctuuluuuupupuuBuBmR]]]]]]]]]]]]]]]]]]]]]]]]]]]]]]]]]]]]]]]]]]]]]]]]]]]]]]]]]]]]]]]]]]]]]]]]]]]]]]]]]]]]]]]]]]]]]]]]]]]]]]]]]]]]]]]]]]]]]]]]]]]]]]]",
"]]]]]]]]]]]]]]]]]]]]]]]]]]]]]]]]]]]]]]]]]]]]]]]]]]]]]]]]]]]]]]]]]]]]]]]]]]]]VuutuuuuuuuuupuuuuuuBpBuBuKuBpm~!]]]]]]]]]]]]]]]]]]]]]]]]]]]]]]]]]]]]]]]]]]]]]]]]]]]]]]]]]]]]]]]]]]]]]]]]]]]]]]]]]]]]]]]]]]]]]]]]]]]]]]]]]]]]]]]]]]]]]]]]]]]]]]",
"]]]]]]]]]]]]]]]]]]]]]]]]]]]]]]]]]]]]]]]]]]]]]]]]]]]]]]]]]]]]]]]]]]]]]]]]]]]AipuupuuFuuueupupuuuHusuBuBuBVB~B~~]]]]]]]]]]]]]]]]]]]]]]]]]]]]]]]]]]]]]]]]]]]]]]]]]]]]]]]]]]]]]]]]]]]]]]]]]]]]]]]]]]]]]]]]]]]]]]]]]]]]]]]]]]]]]]]]]]]]]]]]]]]]]",
"]]]]]]]]]]]]]]]]]]]]]]]]]]]]]]]]]]]]]]]]]]]]]]]]]]]]]]]]]]]]]]]]]]]]]]]]]]Zuuuuuuuuuuup8yueiuuVuVuBuBuBuB0B)B~~]]]]]]]]]]]]]]]]]]]]]]]]]]]]]]]]]]]]]]]]]]]]]]]]]]]]]]]]]]]]]]]]]]]]]]]]]]]]]]]]]]]]]]]]]]]]]]]]]]]]]]]]]]]]]]]]]]]]]]]]]]]]",
"]]]]]]]]]]]]]]]]]]]]]]]]]]]]]]]]]]]]]]]]]]]]]]]]]]]]]]]]]]]]]]]]]]]]]]]]]VpupuppuuuueuupuFuf0uuupuuBuBBJVB)V~B~~]]]]]]]]]]]]]]]]]]]]]]]]]]]]]]]]]]]]]]]]]]]]]]]]]]]]]]]]]]]]]]]]]]]]]]]]]]]]]]]]]]]]]]]]]]]]]]]]]]]]]]]]]]]]]]]]]]]]]]]]]]]",
"]]]]]]]]]]]]]]]]]]]]]]]]]]]]]]]]]]]]]]]]]]]]]]]]]]]]]]]]]]]]]]]]]]]]]]]]VuuuppuuuuuuuupuuuuuKfBjBuKuVuvuBBB~V~AV~]]]]]]]]]]]]]]]]]]]]]]]]]]]]]]]]]]]]]]]]]]]]]]]]]]]]]]]]]]]]]]]]]]]]]]]]]]]]]]]]]]]]]]]]]]]]]]]]]]]]]]]]]]]]]]]]]]]]]]]]]]",
"]]]]]]]]]]]]]]]]]]]]]]]]]]]]]]]]]]]]]]]]]]]]]]]]]]]]]]]]]]]]]]]]]]]]]]]VuujuuuueuueetuuBuuuHutuBuVubBZBBV)B~~B~BV~]]]]]]]]]]V~]]]]]]]]]]]]]]]]]]]]]]]]]]22]]]]]]]]]]]]]]]]]]]]]]]]]]]]]]]]]]]]]]]]]]]]]]]]]]V~]]]]]]]]]]]]]]]]]]]]]]]]]]]]]",
"]JBBBZmBBVBVBBBZnBBBBZBB]]]]]]]]]]]]]]]]]]2HBB]]]]]]]]]]]]]]]]]]]]]]]]]Zuuu0uuueuuuu9puuuuVuVuBuBuBuBuVbBB~KZBV0Bu~]]]]]]]]OuV)W]]]]]]]]]]]]]]]]]]]]]]32B/Y]]]]]]]]]]]]]]]]]]]]]]]2HBB]]]]]]]]]]]]]]]]]]]]]OuV)W]]]]]]]]]]]]]HxBVBBZBBBVZZ]",
"O5u0BiuB0utBuB~BWBW~~c~/DB]]]]]]]]]]]]]]]2uuu~B]]]]]]]]]]]]]]]]]]]]]]]VuuuuuuuuuuctuuluuuupupuuBuBBnABKB~BBBBBBBBB~]]]]]]]]OuuZB~~]]]]]]]]]]]]]]]]]]23'V~~U]]]]]]]]]]]]]]]]]]]]]]2uuu~B]]]]]]]]]]]]]]]]]]]]OuuZB~~]]]]]]]]]=2puZB~B!V~~/~~V",
"O2gBepbuKuVuBuBZBBV~B)~~/~A]]]]]]]]]]]]]20BuBa~B]]]]]]]]]]]]]]]]]]]]]AauupuuuuuuupuuuuuuBpBuBuKuVuBgBbBKBVBBBuV0BuB~]]]]]]]O0uujBB~]]]]]]]]]]]]]]]]2B~n~~~n]]]]]]]]]]]]]]]]]]]]]20BuBa~B]]]]]]]]]]]]]]]]]]]O0uujBB~]]]]]]]]OutnuBpmVBVB~K~B",
"O2KuuuuuuuuBfVuZ0VBBZ~~~BZ~n]]]]]]]]]]]]2BuupBuQ]]]]]]]]]]]]]]]]]]]]]BuuuuaFuuueupupuuuHusuBuVubBZBVBBK~BBBBVBBBpBp~]]]]]]]OuuuuuuV~)]]]]]]]]]]]]<2KBBBBW~L]]]]]]]]]]]]]]]]]]]]]2BuupBuQ]]]]]]]]]]]]]]]]]]]OuuuuuuV~)]]]]]]OfBuZfBiZ~A!~~~B",
"O2uuBuVpBubuKBVBbABV~~VBVBZ~B]]]]]]]]]]2B0BuBuB)B]]]]]]]]]]]]]]]]]]]]uuuuuuuuup8yueiuuVuVuBuBuBuGuBZVB)VBBBuBuBuV0B*]]]]]]]OpppuuujBZ~]]]]]]]]]]2ZKVVBBWn~B]]]]]]]]]]]]]]]]]]]]2B0BuBuB)B]]]]]]]]]]]]]]]]]]OpppuuujBZ~]]]]]OpuBpBBBVVBBNW~B",
"O2uZpuuCpKtBuBuBcBB)BZBBuMjBn]]]]]]]]]5uuuuuuBiB)B]]]]]]]]]]]]]]]]]]uufuuuuueuupuFuf0uuupuuBuBBnABBBVBbBPBBBABeup;O]]]]]]]]Ou0u0uuppuc~~]]]]]]<2uBuBBBV!~~B]]]]]]]]]]]]]]]]]]]5uuuuuuBiB)B]]]]]]]]]]]]]]]]]Ou0u0uuppuc~~]]]OuBuBwB8BBBV^V!B",
"O2BunuBuBuBBBBVVbn~VnBBHZAKu~2]]]]]]]]&uBuBuApBBBV]]]]]]]]]]]]]]]]]]upuuuuuuuupuuuuuKfBjBuKuVuBgBBBBBBBABiVuBgOO&]]]]]]]]]]OuGuuuuB0uuBBW~]]22BBBBBZBB~BB~Z]]]]]]]]]]]]]]]]]]]&uBuBuApBBBV]]]]]]]]]]]]]]]]]OuGuuuuB0uuBB~)]OBpBBBVBBBB~BW~B",
"O2uuuuuBuBpBumBZBbBBBBuBuBuu~5]]]]]]]2BuiBuB0ZuBp^m]]]]]]]]]]]]]]]]]ufe0uueetuuBuuuHutuBuVubBZBVBBK~BBBBKBBBOO]]]]]]]]]]]]]Ouufpu0uuiBuuBB~2uBuBuVBBB~BBB~V]]]]]]]]]]]]]]]]]]2BuiBuB0ZuBp^m]]]]]]]]]]]]]]]]Ouufpu0uuiBuuBV_>uApBuVBBBBBBn!i",
"O2BuBubuKBVBCVBnBBBBBBZbBuBiu2]]]]]]]OuuBaBpZBVZBB!]]]]]]]]]]]]]]]]2auuuuuuu9puuuuVuVuBuBuBuVuBBBB~ZBBBuKu#O]]]]]]]]]]]]]]]OuuuuBuuuuuuBpuZuBKBBBBBBZKBVBEB]]]]]]]]]]]]]]]]]]OuuBaBpZBVZBB!]]]]]]]]]]]]]]]]OuuuuBuuuuuuBupAuVZBBBZVVBIZBBTB",
"O2uBpKtBuBuBnBBWBZBZinpBpBuupO]]]]]]20iuuBumuBuBV~~B]]]]]]]]]]]]]]]2epuuuctuuluuuupupuuBuBBnVBBBBBBVBBBOO*]]]]]]]]]]]]]]]]]OuuueupuVuBuBuVpb0BuKcBB~BnBBu~B]]]]]]]]]]]]]]]]]20iuuBumuBuBV~~B]]]]]]]]]]]]]]]OuuueupuVuBuBuBuBuB0KcbB`ZnBBu~B",
"O2BuBuBBBBVVBB!BVBBBBZVuBpKuB$]]]]]4BuVfBuCBBVBB~V)EB]]]]]]]]]]]]]]2iuuuupuuuuuuBpBuBuKuVuBgBbVBBnVBVO&]]]]]]]]]]]]]]]]]]]]OuuBuueBuupZuZuBZBBKBVZ_VVZZBB~B]]]]]]]]]]]]]]]]4BuVfBuCBBVBB~V)EB]]]]]]]]]]]]]]OuuBuueBuupZuBuVBBBBBGB~BVBBBB~B",
"O2uBuBpBumBZBVIGBBuBuBuuuuuu2]]]]]]*iUubibpZ8VBBB~K~B]]]]]]]]]]]]]2euuueupupuuuHusuBuVubBZBVVBBBBBB**]]]]]]]]]]]]]]]]]]]]]]Ou0uuuBuBiBuBuBpBuVBBV~ZBBBuVi~B]]]]]]]]]]]]]]]]*iUubibpZ8VBBB~K~B]]]]]]]]]]]]]]Ou0uuuBuBiBuBuBpZunBBB!ZVbB0Zi~B",
"O2BaKBVBCVBnBZAnBBZbBuZuBhBpO]]]]]2uBiBuBnBZBBVB~B~B)B]]]]]]]]]]]]2uuuueyueiuuVuVuBuBuBuGuBZBBBKB*O]]]]]]]]]]]]]VB)]]]]]]]]OBuupeuuuugBpKBVBBBVBBVBVCZVBBBB]]]]]]]]]]]]]]]2uBiBuBnBZBBVB~B~B)B]]]]]]]]]]]]]OBuupeuuuugBpKBVBBBVBBVBVCZVBBBB",
"O2uBuBuBnBBWZmKBiBpBpBuupVuO]]]]]OuupVuBuBuBbBB~BBLB)IB]]]]]]]]]]]2uuuuuuFuf0uuupuuBuBBnABBBBBU=O]]]]]]]]]]]]]]iB~Hn]]]]]]]OiieBtBuBuBuZuBuBbBVZbZBZunuAa~Z]]]]]]]]]]]]]]OuupVuBuBuBbBB~BBLB)IB]]]]]]]]]]]]OiieBtBuBuBuZuBuBbBVZbZBZunuAa~Z",
"O2BcBBVVBB!BVVVBHZVuBuBdni&]]]]]]OBuBuBVZnBBBB~BZBBmB~B]]]]]]]]]]]OuuuuiuuuuKfBjBuKuVuBgBBBBBBBB]]]]]]]]]]]]]]]2ubmu]]]]]]]OfuBpuunuZpBBBBVVVV~BBBVBBBBaB~B]]]]]]]]]]]]]]OBuBuBVZnBBBB~BZBBmB~B]]]]]]]]]]]]OfuBpuunuZpBBBBVVVV~BBBVBBBBaB~B",
"*2pBumBZBVIGvB8ZuBupuuuuOO]]]]]]OBuKfBpB0VVa*-KBnbuBeZ~V]]]]]]]]]]OefiuKuuuHutuBuVubBZBVBBK~ZnBBBV]]]]]]]]]]]]]2iff2]]]]]]]O0BuBuBiBuBpBumBZB~BBBBiVuBpne~B]]]]]]]]]]]]]OBuKfBpB0VVa*-KBnbuBeZ~V]]]]]]]]]]]O0BuBuBiBuBpBumBZB~BBBBiVuBpne~B",
"O<VBCVBnBBBBBVB2OOOOOOOO]]]]]]]]OjKpKBVBGb2u O1BVBBnZu~B]]]]]]]]]]Ou8uuuuiAuVuBuBuBuGuBZBZ~BZBBuBuBf]]]]]]]]]]]]222]]]]]]]]OeuuuugBpVVBBBBVBBVBVBVBKBufppBn]]]]]]]]]]]]]OjKpKBVBGb2u O1BVBBnZu~B]]]]]]]]]]]OeuuuugBpVVBBBBVBBVBVBVBKBufppBn",
"O2uBnBBWBZBZiBpO]]]]]]]]]]]]]]]OfmuHuBuBcbZ222VBsnubpVuKL]]]]]]]]]OusHuuuuuupuuBuBBnABBBBVVBGBBBBBuuuu]]]]]]]]]]]]]]]]]]]]]OuBuBuBuZuVuBcZVBbZBZuBpZkBuBuBb]]]]]]]]]]]]OfmuHuBuBcbZ222VBsnubpVuKL]]]]]]]]]]OuBuBuBuZuVuBcZVBbZBZuBpZkBuBuBb",
"O2KBBB!BVBBBBSBO]]]]]]]]]]]]]]OuBuBBBBVVBn~BBVJBVBVuBuBpBB]]]]]]]]*uiuuuZpBuBuKuVuBgBBBBVZBBBiVubuBpBuBi]]]]]]]]]]]]]]]]]]]OpuBuZpBBBBVVAB~BBBVBnZBuBkppB)Z]]]]]]]]]]]OuBuBBBBVVBn~BBVJBVBVuBuBpBB]]]]]]]]]OpuBuZpBBBBVVAB~BBBVBnZBuBkppB)Z",
"O2BBBVIGBBuBuBp%]]]]]]]]]]]]]]OnuBpBumBZB~BBBVpBuVuBfufauV]]]]]]]]O*peuLusuBuVubBZBVBBK~BBnBZBBBuBuufBuuu]]]]]]]]]]]]]]]]]]OuBuBuBpBumVZB(BBBBiVubfBpVuFu~Z]]]]]]]]]]]OnuBpBumBZB~BBBVpBuVuBfufauV]]]]]]]]]OuBuBuBpBumVZB(BBBBiVubfBpVuFu~Z",
"O2BBBVBVBBZbBpB*]]]]]]]]]]]]]OBuBZVBBBVBBVBVBBBHBuBuBuBuB~V]]]]]]]]*fpHuKuBuBuBuGuBZBZ~BZBBuBuBuBiBunuaBuuu]]]]]]]]]]]]]]]]OpuBpKBVBBBBVmBBnBVBKbuuupufuu~B]]]]]]]]]]OBuBZVBBBVBBVBVBBBHBuBuBuBuB~V]]]]]]]]OpuBpKBVBBBBVmBBnBVBKbuuupufuu~B",
"O2BBbZBZinpBpBuO]]]]]]]]]]]]OKuZuB0BcZVBbZBZiVuBpBuBuupB8uEK]]]]]]]O0uuuupuBuBBnABBBBVVBGBBBBBuuujuspuuupfuuu]]]]]]]]]]]]]]OuBuBuBuBxBBUVBBBuBpZpZuVuVuuu~B]]]]]]]]]OKuZuB0BcZVBbZBZiVuBpBuBuupB8uEK]]]]]]]OuBuBuBuBxBBUVBBBuBpZpZuVuVuuu~B",
"O2BBBBVBBZVuBpBO]]]]]]]]]]]]OuBbBBBBAB~BBBVBBZVuBpBuBuBgupuB]]]]]]]O+KuuVuBuVuBgBBBBVZBBBiVuBuBuBuVuuubu0Vupuuu]]]]]]]]]]]]OBpBBBBVVBBVVVBBKnZBuBuuuFiuuu~B]]]]]]]]]OuBbBBBBAB~BBBVBBZVuBpBuBuBgupuB]]]]]]]OBpBBBBVVBBVVVBBKnZBuBuuuFiuuu~B",
"O2BBBBiVuBuueuuO]]]]]]]]]]]OuBuZunBBB(BBBBiVuBuBuuuuufuppBu~A]]]]]]]OugIiBsBBZBVBBK~BBnBZBBBpBuupntuqpf0puuuuuuuu]]]]]]]]]]OuApBumBZVVbBBBrBubfBpBuBuuIuu~B]]]]]]]]OuBuZunBBB(BBBBiVuBuBuuuuufuppBu~A]]]]]]OuApBumBZVVbBBBrBubfBpBuBuuIuu~B",
"O2BBBbBBBuBuBjnO]]]]]]]]]]]ObZBBbBBVmBBnZABBBuBuBuFuBfpuuputZ]]]]]]]OfmuZuBuVuBBZB~BZBBuBuBuBiBunupBuupuupuuuuuuppuO]]]]]]]OBBBBBBBBBVBnbBBHZuuu0up0puueu^B]]]]]]]]ObZBBbBBVmBBnZABBBuBuBuFuBfpuuputZ]]]]]]OBBBBBBBBBVBnbBBHZuuu0up0puueu^B",
":2BLiHtBpnppuJp&]]]]]]]]]]ObiBuBxBVUVKVBuBubpBuBufpnuuuVuuuuuB]]]]]]$O0vfBBBVHZBBZVBGBBBBBuuujusuuuuhuuuuctpuuufuu0O]]]]]]]OfbuBBBBBBZBZiBubpBuVuBufuBeuf~B]]]]]]]ObiBuBxBVUVKVBuBubpBuBufpnuuuVuuuuuB]]]]]OfbuBBBBBBZBZiBubpBuVuBufuBeuf~B",
"O2BBVZVuBpBpBuu#]]]]]]]]]]OBBbnVVBVBVBBnVZVuBpBuZuBuiu7upunuuB]]]]]]]O#0cuBuBbVZBBBVBiVuBuBuBuVuuuBufBpuuuu0uuuupuOO]]]]]]]OBnVBBBBBBBVBBZVuVuuuFuuupupauVB]]]]]]]OBBbnVVBVBVBBnVZVuBpBuZuBuiu7upunuuB]]]]]OBnVBBBBBBBVBBZVuVuuuFuuupupauVB",
"*22226222221222*]]]]]]]]]]O$unBBBBBVBBuBuBiBuuuuuuupuKfu0uuui2]]]]]]]]*nKVBBVZBZBBBBZBBBpBuupntu0pu0uuuuuuuuuuuuuuO]]]]]]]]OuBnZBBBBBBiVuBuBuBuBu0uuup00ubZ]]]]]]]O$unBBBBBVBBuBuBiBuuuuuuupuKfu0uuui2]]]]]OuBnZBBBBBBiVuBuBuBuBu0uuup00ubZ",
"]OOOOOOOOOOOOOO]]]]]]]]]]]]OOOOOOOOOOOOOOOOOOOOOOOOOOOOOOOOO2]]]]]]]]]$*BuABBBBBBBVuBuBuBiBunupBuupuupuuuuuuuup0fOO]]]]]]]]]OOOOOOOOOOOOOOOOOOOOOOOOOOOOOO]]]]]]]]]OOOOOOOOOOOOOOOOOOOOOOOOOOOOOOOOO2]]]]]]]OOOOOOOOOOOOOOOOOOOOOOOOOOOOOO]",
"]]]]]]]]]]]]]]]]]]]]]]]]]]]]]]]]]]]]]]]]]]]]]]]]]]]]]]]]]]]]]]]]]]]]]]],OzBVBBBBBBBBBBuuujusuuuuhuuuuctpuuuuuuue#O]]]]]]]]]]]]]]]]]]]]]]]]]]]]]]]]]]]]]]]]]]]]]]]]]]]]]]]]]]]]]]]]]]]]]]]]]]]]]]]]]]]]]]]]]]]]]]]]]]]]]]]]]]]]]]]]]]]]]]]]]",
"]]]]]]]]]]]]]]]]]]]]]]]]]]]]]]]]]]]]]]]]]]]]]]]]]]]]]]]]]]]]]]]]]]]]]]]]OOBBBBBBHpBuBuBuBuVuuuBufBpuuuu0uuuuuuu.*]]]]]]]]]]]]]]]]]]]]]]]]]]]]]]]]]]]]]]]]]]]]]]]]]]]]]]]]]]]]]]]]]]]]]]]]]]]]]]]]]]]]]]]]]]]]]]]]]]]]]]]]]]]]]]]]]]]]]]]]]]",
"]]]]]]]]]]]]]]]]]]]]]]]]]]]]]]]]]]]]]]]]]]]]]]]]]]]]]]]]]]]]]]]]]]]]]]]]]OoBBBBBBIcBpBuupntu0pu0uuuuuuuuuuuupu&O]]]]]]]]]]]]]]]]]]]]]]]]]]]]]]]]]]]]]]]]]]]]]]]]]]]]]]]]]]]]]]]]]]]]]]]]]]]]]]]]]]]]]]]]]]]]]]]]]]]]]]]]]]]]]]]]]]]]]]]]]]]",
"]]]]]]]]]]]]]]]]]]]]]]]]]]]]]]]]]]]]]]]]]]]]]]]]]]]]]]]]]]]]]]]]]]]]]]]]]]$OnBBpBuBuBuZuBueBuupuuuuuuuuuhup0uOX]]]]]]]]]]]]]]]]]]]]]]]]]]]]]]]]]]]]]]]]]]]]]]]]]]]]]]]]]]]]]]]]]]]]]]]]]]]]]]]]]]]]]]]]]]]]]]]]]]]]]]]]]]]]]]]]]]]]]]]]]]]]",
"]]]]]]]]]]]]]]]]]]]]]]]]]]]]]]]]]]]]]]]]]]]]]]]]]]]]]]]]]]]]]]]]]]]]]]]]]]]*@BpZBBptuuuuuuuuhuuupFtpuuuuuuufOO]]]]]]]]]]]]]]]]]]]]]]]]]]]]]]]]]]]]]]]]]]]]]]]]]]]]]]]]]]]]]]]]]]]]]]]]]]]]]]]]]]]]]]]]]]]]]]]]]]]]]]]]]]]]]]]]]]]]]]]]]]]]]",
"]]]]]]]]]]]]]]]]]]]]]]]]]]]]]]]]]]]]]]]]]]]]]]]]]]]]]]]]]]]]]]]]]]]]]]]]]]]]OOHuBuBuK0VuuuBpfBpuuuuuuuuufuu#*]]]]]]]]]]]]]]]]]]]]]]]]]]]]]]]]]]]]]]]]]]]]]]]]]]]]]]]]]]]]]]]]]]]]]]]]]]]]]]]]]]]]]]]]]]]]]]]]]]]]]]]]]]]]]]]]]]]]]]]]]]]]]]",
"]]]]]]]]]]]]]]]]]]]]]]]]]]]]]]]]]]]]]]]]]]]]]]]]]]]]]]]]]]]]]]]]]]]]]]]]]]]]]O*OpBuupKuutpuwuuuu0uupuuuuh-OO]]]]]]]]]]]]]]]]]]]]]]]]]]]]]]]]]]]]]]]]]]]]]]]]]]]]]]]]]]]]]]]]]]]]]]]]]]]]]]]]]]]]]]]]]]]]]]]]]]]]]]]]]]]]]]]]]]]]]]]]]]]]]]]",
"]]]]]]]]]]]]]]]]]]]]]]]]]]]]]]]]]]]]]]]]]]]]]]]]]]]]]]]]]]]]]]]]]]]]]]]]]]]]]]]OOuB0Bu0Zuuueuuuu0uuuuufu*O]]]]]]]]]]]]]]]]]]]]]]]]]]]]]]]]]]]]]]]]]]]]]]]]]]]]]]]]]]]]]]]]]]]]]]]]]]]]]]]]]]]]]]]]]]]]]]]]]]]]]]]]]]]]]]]]]]]]]]]]]]]]]]]]]",
"]]]]]]]]]]]]]]]]]]]]]]]]]]]]]]]]]]]]]]]]]]]]]]]]]]]]]]]]]]]]]]]]]]]]]]]]]]]]]]]]***Ouuu0iuuufFuuuupufO*:O]]]]]]]]]]]]]]]]]]]]]]]]]]]]]]]]]]]]]]]]]]]]]]]]]]]]]]]]]]]]]]]]]]]]]]]]]]]]]]]]]]]]]]]]]]]]]]]]]]]]]]]]]]]]]]]]]]]]]]]]]]]]]]]]]]",
"]]]]]]]]]]]]]]]]]]]]]]]]]]]]]]]]]]]]]]]]]]]]]]]]]]]]]]]]]]]]]]]]]]]]]]]]]]]]]]]]]]]OOOOfuluuuijpiuO&*O]]]]]]]]]]]]]]]]]]]]]]]]]]]]]]]]]]]]]]]]]]]]]]]]]]]]]]]]]]]]]]]]]]]]]]]]]]]]]]]]]]]]]]]]]]]]]]]]]]]]]]]]]]]]]]]]]]]]]]]]]]]]]]]]]]]]]",
"]]]]]]]]]]]]]]]]]]]]]]]]]]]]]]]]]]]]]]]]]]]]]]]]]]]]]]]]]]]]]]]]]]]]]]]]]]]]]]]]]]]]]]*OOOOOO*OOOOO]]]]]]]]]]]]]]]]]]]]]]]]]]]]]]]]]]]]]]]]]]]]]]]]]]]]]]]]]]]]]]]]]]]]]]]]]]]]]]]]]]]]]]]]]]]]]]]]]]]]]]]]]]]]]]]]]]]]]]]]]]]]]]]]]]]]]]]]"
};
