/* XPM */
static char *result[] = {
/* columns rows colors chars-per-pixel */
"112 16 3 1 ",
"  c black",
". c #E5E841",
"X c #00ff16",
/* pixels */
"XX    XXXX    XXXXXX        XXXXXX    XXXX    XXXXXXXXXXXXXXXXXXXX    XXXXXX  XXXXXXXX    XXXXXXXX    XXXX    XX",
"XX    XXXX    XXXXXX        XXXXXX    XXXX    XXXXXXXXXXXXXXXXXXXX    XXXXXX  XXXXXXXX    XXXXXXXX    XXXX    XX",
"  ....    ....  XX  ........  XX  ....    ....  XXXXXXXXXXXXXXXX  ....      ..  XXXX  ....  XXXX  ....    ....  ",
"  ....    ....  XX  ........  XX  ....    ....  XXXXXXXXXXXXXXXX  ....      ..  XXXX  ....  XXXX  ....    ....  ",
"  ......  ....    ....    ....    ....    ....  XXXXXXXXXXXXXXXX  ....  ..  ..  XXXX  ....  XXXX  ......  ....  ",
"  ......  ....    ....    ....    ....    ....  XXXXXXXXXXXXXXXX  ....  ..  ..  XXXX  ....  XXXX  ......  ....  ",
"XX  ..........    ....    ....    ....    ....  XXXXXXXXXXXXXXXX  ............  XXXX  ....  XXXX  ............  ",
"XX  ..........    ....    ....    ....    ....  XXXXXXXXXXXXXXXX  ............  XXXX  ....  XXXX  ............  ",
"XXXX  ......  XX  ....    ....    ....    ....  XXXXXXXXXXXXXXXX  ............  XXXX  ....  XXXX  ............  ",
"XXXX  ......  XX  ....    ....    ....    ....  XXXXXXXXXXXXXXXX  ............  XXXX  ....  XXXX  ............  ",
"XX  ......  XXXX  ....    ....    ....    ....  XXXXXXXXXXXXXXXX  ......  ....  XXXX  ....  XXXX  ....  ......  ",
"XX  ......  XXXX  ....    ....    ....    ....  XXXXXXXXXXXXXXXX  ......  ....  XXXX  ....  XXXX  ....  ......  ",
"XX  ....  XXXXXXXX  ........  XXXX  ........  XXXXXXXXXXXXXXXXXX  ....  XX  ..  XXXX  ....  XXXX  ....    ....  ",
"XX  ....  XXXXXXXX  ........  XXXX  ........  XXXXXXXXXXXXXXXXXX  ....  XX  ..  XXXX  ....  XXXX  ....    ....  ",
"XXXX    XXXXXXXXXXXX        XXXXXXXX        XXXXXXXXXXXXXXXXXXXXXX    XXXXXX  XXXXXXXX    XXXXXXXX    XXXX    XX",
"XXXX    XXXXXXXXXXXX        XXXXXXXX        XXXXXXXXXXXXXXXXXXXXXX    XXXXXX  XXXXXXXX    XXXXXXXX    XXXX    XX"
};
